<?xml version="1.0" encoding="UTF-8"?>
<svg id="Calque_1" data-name="Calque 1" xmlns="http://www.w3.org/2000/svg" viewBox="0 0 768 768">
  <defs>
    <style>
      .cls-1 {
        fill: #aa562f;
      }
    </style>
  </defs>
  <path class="cls-1" d="M346.97,248.64c0,10.52-2.71,19.88-8.22,28.08-5.42,8.2-11.75,14.63-18.9,19.25-10.52-7.15-22.1-13.25-34.72-18.3-12.61-5.05-27.16-7.56-43.55-7.56-21.45,0-39.65,4.52-54.6,13.56-14.91,9.06-26.29,22.08-34.06,39.13-7.76,17.03-11.67,37.53-11.67,61.52,0,37,9.33,65.22,28.06,84.53,18.73,19.39,44.7,29.05,77.98,29.05,17.21,0,31.84-2.3,43.84-6.94,11.96-4.64,23.46-9.86,34.39-15.78,7.15,5.46,12.74,12.41,16.72,20.83,3.99,8.42,6,18.08,6,29,0,9.7-2.51,18.53-7.6,26.54-5.01,7.97-13.64,14.71-25.84,20.17-7.6,3.37-18.28,6.74-32.17,10.11-13.89,3.37-30.73,5.05-50.53,5.05-37.84,0-72.22-7.19-103.12-21.49-30.98-14.3-55.54-36.36-73.87-66.23-18.28-29.87-27.44-68.16-27.44-114.85,0-43.75,8.83-80.67,26.5-110.76,17.71-30.07,41.54-53,71.61-68.77,30.07-15.78,63.23-23.66,99.42-23.66,25.64,0,47.53,2.96,65.61,8.83,18.12,5.9,32,13.89,41.66,23.97,9.65,10.11,14.5,21.67,14.5,34.72Z"/>
  <path class="cls-1" d="M713.83,272.94c-17.67-30.07-41.62-52.89-71.94-68.46-30.28-15.57-64.13-23.36-101.6-23.36s-71.2,7.78-101.27,23.36c-30.07,15.57-53.94,38.39-71.61,68.46-17.67,30.07-26.5,66.99-26.5,110.74s8.59,80.77,25.84,111.05c17.26,30.28,40.92,53.24,70.99,68.77,30.07,15.57,64.25,23.38,102.55,23.38s72.47-7.81,102.54-23.38c30.07-15.53,53.86-38.5,71.32-68.77,17.46-30.28,26.17-67.3,26.17-111.05s-8.83-80.67-26.5-110.74ZM618.26,343.53c-9.38,30.43-28.5,56.81-52.36,77.91-25.95,22.94-61.74,49.95-74.38,37.31-20.69-20.69-12.02-70.74,20.69-103.46,33.56-33.56,67.12-53.51,78.61-59.86,2.72-1.5,5.78-2.37,8.82-1.77,17.53,3.49,25.76,26.68,18.61,49.86Z"/>
</svg>