<?xml version="1.0" encoding="UTF-8"?>
<svg id="Calque_1" data-name="Calque 1" xmlns="http://www.w3.org/2000/svg" viewBox="0 0 768 768">
  <defs>
    <style>
      .cls-1 {
        fill: #fda15d;
      }
    </style>
  </defs>
  <path class="cls-1" d="M347.96,249.44c0,10.6-2.73,20.04-8.28,28.3-5.47,8.26-11.84,14.74-19.05,19.4-10.6-7.21-22.28-13.36-34.99-18.45-12.71-5.09-27.37-7.62-43.9-7.62-21.62,0-39.96,4.56-55.04,13.67-15.03,9.13-26.5,22.26-34.33,39.44-7.83,17.16-11.76,37.83-11.76,62.01,0,37.29,9.4,65.74,28.28,85.2,18.88,19.55,45.06,29.28,78.6,29.28,17.35,0,32.09-2.32,44.19-7,12.05-4.68,23.65-9.94,34.66-15.9,7.21,5.51,12.84,12.51,16.85,21,4.02,8.49,6.05,18.22,6.05,29.24,0,9.77-2.53,18.68-7.66,26.75-5.05,8.03-13.75,14.83-26.05,20.33-7.66,3.4-18.43,6.79-32.42,10.19-14,3.4-30.98,5.09-50.94,5.09-38.14,0-72.8-7.25-103.94-21.66-31.22-14.41-55.99-36.65-74.46-66.75-18.43-30.11-27.66-68.7-27.66-115.76,0-44.1,8.9-81.31,26.71-111.64,17.85-30.31,41.87-53.42,72.18-69.32,30.31-15.9,63.73-23.85,100.21-23.85,25.84,0,47.91,2.98,66.13,8.9,18.26,5.94,32.26,14,41.99,24.16,9.73,10.19,14.62,21.84,14.62,34.99Z"/>
  <path class="cls-1" d="M715.43,269.27c-17.62-30.01-41.54-52.78-71.79-68.33-30.24-15.53-64.02-23.32-101.42-23.32s-71.05,7.79-101.09,23.32c-30.01,15.55-53.83,38.32-71.47,68.33-17.62,30.03-26.43,66.87-26.43,110.55s8.56,80.62,25.78,110.84c17.22,30.22,40.85,53.14,70.87,68.65,30.01,15.53,64.13,23.31,102.34,23.31s72.33-7.79,102.36-23.31c30.01-15.51,53.75-38.43,71.18-68.65,17.43-30.22,26.12-67.18,26.12-110.84s-8.81-80.51-26.45-110.55ZM435.13,302.04c7.81-.73,20.64,2.16,29.11,2.6,34.91,1.82,73.69,1.82,107.43-7.49,9.73-2.7,24.65-10.11,33.4-11.18,13.56-1.65,42.61,11.22,44.7,26.85,4.02,30.12-28.19,19.17-45.75,18.31-27.75-1.32-55.19,1.42-82.08,8-12.72,3.12-29.76,11.03-42.23,10.02-15.84-1.28-46.61-16.45-53.35-31.5-3.87-8.58-1-14.71,8.77-15.61ZM655.87,475.63c-10.03,2.66-35.08-2.85-46.73-3.87-32.48-2.85-65.3-2.47-97.47,2.8-17.81,2.93-42.88,12.72-59.63,8.58-14.11-3.5-41.13-18.96-47.24-32.5-5.96-13.23,4.71-13.46,14.88-13.16,12.77.38,25.76,2.93,38.55,3.45,8.98.36,18.06-.33,27.04-.04-4.5-27.38-14.65-53.37-21.37-80.22,4.08-20.2,27.58-6.97,37.94.65,4.86,3.6,15.38,12.45,17.27,17.89,4.29,12.45-3.83,30.6-6.17,43.51-.42,2.37-2.59,17.54-1.95,18.17l71.98-4.29c-.29-9.54.42-19.19.04-28.74-.44-11.53-1.7-25.16-3.7-36.58-1.38-7.85-8.02-24.63-2.8-30.72,10.07-11.74,36.35,6.78,44.64,14.61,6.17,5.82,9.4,9.84,7.74,18.92-2.03,11.07-10.76,27.02-14.59,38.55-2.51,7.58-4.42,15.4-6.47,23.11,1.51,1.13,25.47-6.24,30.39-6.03,9.15.4,28.19,8.89,31.75,18.04,3.37,8.69-5.07,25.51-14.11,27.88Z"/>
</svg>