<?xml version="1.0" encoding="UTF-8"?>
<svg id="Calque_1" data-name="Calque 1" xmlns="http://www.w3.org/2000/svg" viewBox="0 0 1064 254.79">
  <defs>
    <style>
      .cls-1 {
        fill: #fff;
      }

      .cls-2 {
        fill: #7f8f9d;
      }
    </style>
  </defs>
  <path class="cls-2" d="M161.31,43.49c0,4.8-1.24,9.07-3.75,12.81-2.47,3.74-5.36,6.67-8.62,8.78-4.8-3.26-10.08-6.04-15.83-8.35-5.75-2.3-12.39-3.45-19.86-3.45-9.78,0-18.08,2.06-24.9,6.18-6.8,4.13-11.99,10.07-15.53,17.85-3.54,7.77-5.32,17.12-5.32,28.06,0,16.87,4.25,29.75,12.8,38.56,8.55,8.84,20.39,13.25,35.57,13.25,7.85,0,14.52-1.05,19.99-3.17,5.45-2.12,10.7-4.5,15.68-7.2,3.26,2.49,5.81,5.66,7.63,9.5s2.74,8.25,2.74,13.23c0,4.42-1.14,8.45-3.47,12.11-2.29,3.64-6.22,6.71-11.79,9.2-3.47,1.54-8.34,3.07-14.67,4.61-6.33,1.54-14.02,2.3-23.05,2.3-17.26,0-32.94-3.28-47.04-9.8-14.13-6.52-25.34-16.58-33.69-30.21-8.34-13.62-12.52-31.09-12.52-52.39,0-19.96,4.03-36.79,12.09-50.52,8.08-13.72,18.95-24.17,32.66-31.37,13.72-7.2,28.84-10.79,45.35-10.79,11.69,0,21.68,1.35,29.93,4.03,8.26,2.69,14.6,6.33,19,10.93,4.4,4.61,6.61,9.88,6.61,15.83Z"/>
  <path class="cls-2" d="M790.95,149.71c-2.49,1.91-5.72,3.54-9.63,4.89-3.94,1.33-8.49,2.01-13.68,2.01-6.91,0-12.61-.86-17.13-2.59-4.52-1.72-7.44-4.7-8.77-8.92-5.38-17.07-9.8-30.8-13.25-41.16-3.45-10.36-6.15-19.47-8.06-27.34h-1.44c-.56,11.32-1.01,21.63-1.29,30.94-.28,9.3-.49,18.32-.58,27.05-.09,8.73-.28,17.65-.56,26.78-.3,9.11-.73,19.13-1.29,30.08-2.51.77-5.77,1.54-9.8,2.3-4.03.75-8.06,1.14-12.09,1.14-8.25,0-14.77-1.35-19.56-4.03-4.8-2.68-7.2-7.57-7.2-14.67,0-4.8.19-11.37.56-19.71.39-8.36.92-17.75,1.59-28.22.67-10.46,1.33-21.44,2.01-32.94.67-11.52,1.41-22.93,2.17-34.26.75-11.32,1.42-21.88,2.01-31.66,1.54-2.49,4.89-5.18,10.08-8.06,5.17-2.89,12.46-4.32,21.87-4.32,10.18,0,18.18,1.58,24.04,4.75,5.85,3.17,10.03,8.3,12.52,15.39,2.3,6.15,4.8,13.39,7.48,21.74,2.68,8.34,5.38,16.79,8.06,25.33,2.7,8.54,5.08,16.17,7.2,22.88h1.44c4.61-15.93,9.26-31.52,13.96-46.77,4.7-15.25,8.88-27.87,12.52-37.85,2.89-1.53,6.61-2.82,11.22-3.88,4.61-1.06,9.59-1.58,14.97-1.58,9.41,0,17.07,1.4,23.03,4.17,5.94,2.78,9.39,6.76,10.36,11.95.77,3.84,1.57,9.7,2.44,17.56.86,7.87,1.78,16.88,2.74,27.06.96,10.17,1.91,20.77,2.89,31.8.96,11.04,1.87,21.74,2.74,32.1.86,10.34,1.57,19.71,2.16,28.05.58,8.36.96,14.92,1.14,19.71-3.26,1.93-6.67,3.32-10.21,4.18-3.56.86-8.11,1.29-13.68,1.29-7.08,0-13.19-1.26-18.27-3.75-5.08-2.49-7.81-7.38-8.21-14.67-.77-14-1.33-27.06-1.72-39.15-.37-12.09-.67-23.11-.86-33.09-.19-9.98-.49-18.71-.86-26.2h-1.44c-1.91,7.49-4.7,16.89-8.34,28.21-3.65,11.33-8.06,25.81-13.25,43.47Z"/>
  <path class="cls-2" d="M319.13,20.18c-4.22-3.46-11.13-5.18-20.73-5.18-4.2,0-8.58.34-13.08,1-4.52.67-7.91,1.2-10.23,1.58-8.09.88-9.88,63.29-25.47,67.93h-4.26c-19.63-6.62-25.84-52.01-25.84-52.01v.17c-.68-6.52-2.66-11.18-6.01-13.78-4.24-3.26-11.13-4.89-20.73-4.89-4.24,0-8.6.34-13.12,1-4.5.67-7.91,1.2-10.19,1.58v153.41c0,8.83,2.01,15.03,6.03,18.57,4.03,3.54,11.02,5.32,21.01,5.32,4.61,0,9.13-.28,13.53-.86,4.4-.58,7.66-1.14,9.8-1.72,10.73-3.41,7.88-63.12,24.43-67.07h3.78c17.68,4.06,25.44,40.57,27.38,51.52.06.46.16.86.23,1.3.2,1.16.3,1.88.3,1.88v-.56c.92,4.44,2.59,7.92,5.17,10.19,4.03,3.54,11.04,5.32,21.01,5.32,4.61,0,9.11-.28,13.53-.86,4.42-.58,7.68-1.14,9.78-1.72V39.46c0-9.4-2.1-15.83-6.33-19.28Z"/>
  <g>
    <path class="cls-1" d="M256.89,241.87v-26.42h18.12v2.41h-15.33v21.59h15.89v2.41h-18.68ZM259.38,229.64v-2.38h13.97v2.38h-13.97Z"/>
    <path class="cls-1" d="M279.36,232.81v-2.34h9.89v2.34h-9.89Z"/>
    <path class="cls-1" d="M302.42,242.1c-1.96,0-3.84-.32-5.64-.97s-3.19-1.47-4.17-2.47l1.09-2.16c.93.91,2.18,1.67,3.76,2.29,1.57.62,3.23.93,4.96.93s3.01-.21,4.06-.63c1.04-.41,1.81-.98,2.3-1.68.49-.71.74-1.48.74-2.34,0-1.03-.3-1.86-.89-2.5-.59-.63-1.36-1.12-2.32-1.48-.95-.37-2.01-.69-3.17-.97-1.15-.28-2.31-.57-3.47-.88-1.15-.31-2.22-.74-3.19-1.26-.97-.53-1.74-1.23-2.34-2.1-.59-.87-.88-2-.88-3.41,0-1.31.35-2.52,1.04-3.61.69-1.09,1.75-1.97,3.19-2.64,1.44-.67,3.27-1,5.51-1,1.48,0,2.96.21,4.41.63,1.46.41,2.72.99,3.78,1.71l-.95,2.23c-1.13-.76-2.33-1.31-3.6-1.66-1.27-.36-2.5-.53-3.68-.53-1.59,0-2.89.22-3.93.65-1.03.42-1.8,1-2.29,1.71s-.74,1.53-.74,2.43c0,1.03.29,1.87.88,2.5.6.63,1.37,1.12,2.34,1.47.97.35,2.04.66,3.19.94,1.16.28,2.31.58,3.46.9,1.14.33,2.2.76,3.17,1.26.97.52,1.75,1.21,2.34,2.06s.89,1.97.89,3.35c0,1.29-.36,2.48-1.06,3.57-.71,1.1-1.78,1.98-3.23,2.65-1.45.66-3.31,1-5.58,1Z"/>
    <path class="cls-1" d="M318.35,241.87v-26.42h9.89c2.24,0,4.17.36,5.78,1.08,1.61.71,2.85,1.74,3.71,3.09.87,1.35,1.31,2.98,1.31,4.89s-.44,3.47-1.31,4.81-2.1,2.39-3.71,3.12c-1.61.73-3.54,1.1-5.78,1.1h-8.34l1.24-1.33v9.67h-2.79ZM321.14,232.43l-1.24-1.35h8.27c2.65,0,4.65-.58,6.02-1.72s2.06-2.76,2.06-4.85-.68-3.75-2.06-4.91c-1.37-1.15-3.37-1.73-6.02-1.73h-8.27l1.24-1.32v15.89Z"/>
    <path class="cls-1" d="M357,242.1c-1.98,0-3.82-.34-5.53-1-1.7-.66-3.17-1.61-4.41-2.83-1.24-1.23-2.21-2.65-2.9-4.27-.7-1.62-1.04-3.4-1.04-5.35s.34-3.71,1.04-5.34c.69-1.62,1.66-3.05,2.9-4.27,1.24-1.22,2.71-2.17,4.4-2.83,1.69-.67,3.54-1,5.55-1s3.82.33,5.51,1c1.69.66,3.15,1.6,4.41,2.81,1.24,1.21,2.21,2.63,2.9,4.27.69,1.63,1.04,3.42,1.04,5.35s-.35,3.73-1.04,5.36c-.69,1.64-1.66,3.06-2.9,4.27-1.25,1.21-2.72,2.15-4.41,2.81-1.69.66-3.52,1-5.51,1ZM357,239.6c1.59,0,3.05-.27,4.41-.81,1.35-.54,2.52-1.31,3.5-2.3,1-1,1.77-2.15,2.32-3.47.55-1.32.83-2.77.83-4.36s-.28-3.03-.83-4.36c-.55-1.32-1.33-2.48-2.32-3.47s-2.16-1.76-3.5-2.29c-1.35-.54-2.82-.81-4.41-.81s-3.05.27-4.41.81c-1.35.53-2.54,1.31-3.55,2.29-1,1-1.79,2.16-2.34,3.47-.55,1.33-.83,2.77-.83,4.36s.28,3.01.83,4.34c.55,1.34,1.34,2.5,2.34,3.49,1,1,2.19,1.76,3.55,2.3,1.36.54,2.83.81,4.41.81Z"/>
    <path class="cls-1" d="M377.13,241.87v-26.42h9.89c3.35,0,5.98.8,7.91,2.4,1.93,1.59,2.89,3.82,2.89,6.66,0,1.86-.44,3.47-1.31,4.81-.87,1.35-2.1,2.38-3.71,3.1s-3.54,1.08-5.78,1.08h-8.34l1.24-1.29v9.67h-2.79ZM379.93,232.43l-1.24-1.32h8.27c2.65,0,4.65-.58,6.02-1.74,1.37-1.15,2.06-2.77,2.06-4.87s-.68-3.75-2.06-4.91c-1.37-1.15-3.37-1.73-6.02-1.73h-8.27l1.24-1.32v15.89ZM395.18,241.87l-6.79-9.59h3.01l6.84,9.59h-3.06Z"/>
    <path class="cls-1" d="M409.18,241.87v-24.01h-9.29v-2.41h21.37v2.41h-9.29v24.01h-2.79Z"/>
    <path class="cls-1" d="M433.57,232.81v-2.34h9.89v2.34h-9.89Z"/>
    <path class="cls-1" d="M471.39,242.1c-1.99,0-3.82-.34-5.51-1-1.69-.66-3.14-1.6-4.38-2.81s-2.19-2.63-2.88-4.27c-.7-1.63-1.04-3.42-1.04-5.36s.34-3.72,1.04-5.35c.69-1.64,1.66-3.06,2.9-4.27,1.24-1.21,2.71-2.15,4.4-2.81,1.69-.67,3.52-1,5.51-1s3.71.32,5.4.97c1.69.64,3.11,1.6,4.27,2.88l-1.78,1.78c-1.08-1.12-2.28-1.91-3.59-2.41-1.31-.49-2.72-.73-4.23-.73s-3.05.27-4.41.81c-1.35.53-2.54,1.31-3.55,2.29-1,1-1.79,2.16-2.36,3.47-.56,1.33-.85,2.77-.85,4.36s.29,3.04.85,4.36c.57,1.33,1.35,2.48,2.36,3.47,1,1,2.19,1.76,3.55,2.3,1.36.54,2.83.81,4.41.81s2.92-.25,4.23-.76c1.31-.5,2.51-1.31,3.59-2.41l1.78,1.78c-1.16,1.28-2.58,2.25-4.27,2.9s-3.5.99-5.44.99Z"/>
    <path class="cls-1" d="M492.42,241.87v-9.82l.65,1.73-11.22-18.34h2.99l9.85,16.12h-1.59l9.85-16.12h2.79l-11.22,18.34.65-1.73v9.82h-2.76Z"/>
    <path class="cls-1" d="M509.53,241.87v-26.42h11.4c2.94,0,5.23.59,6.85,1.77,1.62,1.19,2.44,2.86,2.44,5.02,0,1.44-.34,2.65-1,3.62-.66.99-1.58,1.72-2.72,2.23-1.14.51-2.4.76-3.75.76l.64-.9c1.69,0,3.14.26,4.36.77,1.23.52,2.18,1.28,2.86,2.29.67,1.02,1.01,2.29,1.01,3.8,0,2.24-.82,3.98-2.47,5.21-1.65,1.24-4.14,1.85-7.46,1.85h-12.16ZM512.32,239.56h9.33c2.31,0,4.08-.4,5.32-1.19,1.24-.79,1.85-2.06,1.85-3.8s-.62-2.96-1.85-3.75c-1.24-.79-3-1.19-5.32-1.19h-9.63v-2.3h8.72c2.12,0,3.76-.41,4.93-1.21,1.17-.8,1.75-2,1.75-3.59s-.58-2.81-1.75-3.6c-1.17-.79-2.81-1.19-4.93-1.19h-8.41v21.82Z"/>
    <path class="cls-1" d="M537.99,241.87v-26.42h18.12v2.41h-15.33v21.59h15.89v2.41h-18.68ZM540.48,229.64v-2.38h13.97v2.38h-13.97Z"/>
    <path class="cls-1" d="M563.24,241.87v-26.42h9.89c3.35,0,5.98.8,7.91,2.4,1.93,1.59,2.89,3.82,2.89,6.66,0,1.86-.44,3.47-1.31,4.81s-2.1,2.38-3.71,3.1-3.54,1.08-5.78,1.08h-8.34l1.24-1.29v9.67h-2.79ZM566.04,232.43l-1.24-1.32h8.27c2.65,0,4.65-.58,6.02-1.74,1.37-1.15,2.06-2.77,2.06-4.87s-.68-3.75-2.06-4.91c-1.37-1.15-3.37-1.73-6.02-1.73h-8.27l1.24-1.32v15.89ZM581.29,241.87l-6.79-9.59h3.01l6.84,9.59h-3.06Z"/>
    <path class="cls-1" d="M602.01,242.1c-1.99,0-3.82-.34-5.51-1-1.69-.66-3.14-1.6-4.38-2.81s-2.19-2.63-2.88-4.27c-.7-1.63-1.04-3.42-1.04-5.36s.34-3.72,1.04-5.35c.69-1.64,1.66-3.06,2.9-4.27,1.24-1.21,2.71-2.15,4.4-2.81,1.69-.67,3.52-1,5.51-1s3.71.32,5.4.97c1.69.64,3.11,1.6,4.27,2.88l-1.78,1.78c-1.08-1.12-2.28-1.91-3.59-2.41-1.31-.49-2.72-.73-4.23-.73s-3.05.27-4.41.81c-1.35.53-2.54,1.31-3.55,2.29-1,1-1.79,2.16-2.36,3.47-.56,1.33-.85,2.77-.85,4.36s.29,3.04.85,4.36c.57,1.33,1.35,2.48,2.36,3.47s2.19,1.76,3.55,2.3c1.36.54,2.83.81,4.41.81s2.92-.25,4.23-.76c1.31-.5,2.51-1.31,3.59-2.41l1.78,1.78c-1.16,1.28-2.58,2.25-4.27,2.9s-3.5.99-5.44.99Z"/>
    <path class="cls-1" d="M612.39,241.87l12.08-26.42h2.76l12.08,26.42h-2.95l-11.1-24.8h1.13l-11.1,24.8h-2.91ZM617.14,234.81l.83-2.27h15.36l.84,2.27h-17.03Z"/>
    <path class="cls-1" d="M643.69,241.87v-26.42h18.12v2.41h-15.33v24.01h-2.79ZM646.17,230.65v-2.41h13.97v2.41h-13.97Z"/>
    <path class="cls-1" d="M667.58,241.87v-26.42h18.12v2.41h-15.33v21.59h15.89v2.41h-18.68ZM670.07,229.64v-2.38h13.97v2.38h-13.97ZM674.19,213.29l5.17-4.68h3.59l-6.12,4.68h-2.64Z"/>
    <path class="cls-1" d="M700.69,232.81v-2.34h9.89v2.34h-9.89Z"/>
    <path class="cls-1" d="M727.04,241.87v-26.42h2.79v26.42h-2.79ZM729.46,235.3l-.11-3.39,16.01-16.46h3.21l-11.67,12.23-1.59,1.7-5.85,5.93ZM746.03,241.87l-11.4-13.13,1.89-2.05,12.84,15.18h-3.33Z"/>
    <path class="cls-1" d="M753.88,241.87v-26.42h9.89c2.24,0,4.17.36,5.78,1.08,1.61.71,2.85,1.74,3.71,3.09.87,1.35,1.31,2.98,1.31,4.89s-.44,3.47-1.31,4.81-2.1,2.39-3.71,3.12c-1.61.73-3.54,1.1-5.78,1.1h-8.34l1.24-1.33v9.67h-2.79ZM756.67,232.43l-1.24-1.35h8.27c2.65,0,4.65-.58,6.02-1.72s2.06-2.76,2.06-4.85-.68-3.75-2.06-4.91c-1.37-1.15-3.37-1.73-6.02-1.73h-8.27l1.24-1.32v15.89Z"/>
    <path class="cls-1" d="M792.53,242.1c-1.98,0-3.82-.34-5.53-1-1.7-.66-3.17-1.61-4.41-2.83-1.24-1.23-2.21-2.65-2.9-4.27-.7-1.62-1.04-3.4-1.04-5.35s.34-3.71,1.04-5.34c.69-1.62,1.66-3.05,2.9-4.27,1.24-1.22,2.71-2.17,4.4-2.83,1.69-.67,3.54-1,5.55-1s3.82.33,5.51,1c1.69.66,3.15,1.6,4.41,2.81,1.24,1.21,2.21,2.63,2.9,4.27.69,1.63,1.04,3.42,1.04,5.35s-.35,3.73-1.04,5.36c-.69,1.64-1.66,3.06-2.9,4.27-1.25,1.21-2.72,2.15-4.41,2.81-1.69.66-3.52,1-5.51,1ZM792.53,239.6c1.59,0,3.05-.27,4.41-.81,1.35-.54,2.52-1.31,3.5-2.3,1-1,1.77-2.15,2.32-3.47.55-1.32.83-2.77.83-4.36s-.28-3.03-.83-4.36c-.55-1.32-1.33-2.48-2.32-3.47s-2.16-1.76-3.5-2.29c-1.35-.54-2.82-.81-4.41-.81s-3.05.27-4.41.81c-1.35.53-2.54,1.31-3.55,2.29-1,1-1.79,2.16-2.34,3.47-.55,1.33-.83,2.77-.83,4.36s.28,3.01.83,4.34c.55,1.34,1.34,2.5,2.34,3.49,1,1,2.19,1.76,3.55,2.3,1.36.54,2.83.81,4.41.81Z"/>
    <path class="cls-1" d="M812.66,241.87v-26.42h9.89c2.24,0,4.17.36,5.78,1.08,1.61.71,2.85,1.74,3.71,3.09.87,1.35,1.31,2.98,1.31,4.89s-.44,3.47-1.31,4.81-2.1,2.39-3.71,3.12c-1.61.73-3.54,1.1-5.78,1.1h-8.34l1.24-1.33v9.67h-2.79ZM815.46,232.43l-1.24-1.35h8.27c2.65,0,4.65-.58,6.02-1.72s2.06-2.76,2.06-4.85-.68-3.75-2.06-4.91c-1.37-1.15-3.37-1.73-6.02-1.73h-8.27l1.24-1.32v15.89Z"/>
  </g>
  <path class="cls-2" d="M475.01,163.24c-3.26-4.42-6.86-9.22-10.79-14.39-3.94-5.19-8.1-10.57-12.52-16.13-1.93-2.44-3.77-4.96-5.67-7.43,8.51-4.92,15.59-11.12,21.07-18.75,6.61-9.21,9.93-19.67,9.93-31.38,0-18.81-6.73-33.82-20.14-45.04-13.44-11.23-33.39-16.85-59.87-16.85-9.78,0-19,.53-27.62,1.58-8.66,1.06-16.23,2.74-22.75,5.04-3.65,1.35-6.63,3.12-8.92,5.32-2.3,2.21-3.45,5.33-3.45,9.36v136.42c0,8.83,2.01,15.03,6.03,18.57,4.03,3.54,11.02,5.32,21.01,5.32,4.61,0,9.13-.28,13.53-.86,4.4-.58,7.66-1.14,9.8-1.72v-56.12h15.29l24.42,39.43c3.64,5.96,7.63,10.76,11.96,14.39,4.31,3.64,10.59,5.47,18.85,5.47,6.33,0,12.03-1.84,17.13-5.47,5.08-3.64,8.58-8.73,10.49-15.25-1.91-3.26-4.52-7.1-7.78-11.51ZM433.2,83.26c-3.99,17.4-33.19,22.12-47.08,15.36-6.83-3.32-16.62-16.58-17.22-24.17-1.37-17.48,13.61-34.8,30.94-36.31,7.96-.69,14.82.86,21.01,5.99,13.62,11.27,16.33,21.78,12.35,39.13Z"/>
  <path class="cls-2" d="M649.53,54.58c-8.06-13.72-18.98-24.13-32.81-31.23-13.81-7.1-29.25-10.65-46.34-10.65s-32.48,3.55-46.19,10.65c-13.72,7.1-24.6,17.51-32.66,31.23-8.06,13.72-12.09,30.55-12.09,50.51s3.92,36.84,11.79,50.65c7.87,13.81,18.66,24.29,32.38,31.37,13.72,7.1,29.31,10.66,46.77,10.66s33.06-3.56,46.77-10.66c13.72-7.08,24.57-17.56,32.53-31.37,7.96-13.81,11.94-30.7,11.94-50.65s-4.03-36.79-12.09-50.51ZM612.66,124.85c-5.21,22.72-43.33,28.87-61.46,20.05-8.92-4.34-21.7-21.64-22.48-31.55-1.78-22.82,17.76-45.43,40.39-47.39,10.39-.9,19.35,1.13,27.43,7.82,17.79,14.72,21.31,28.44,16.12,51.08Z"/>
  <path class="cls-2" d="M1038.25,150.14c-3.84-13.53-7.81-27.45-11.94-41.74-4.14-14.29-8.17-28.01-12.11-41.16-3.93-13.14-7.63-24.6-11.07-34.4-1.91-6.14-6.61-10.6-14.11-13.38-7.48-2.78-16.02-4.18-25.62-4.18-6.52,0-13.14.87-19.85,2.6-6.73,1.72-11.71,3.55-14.97,5.47-1.54,4.03-3.84,10.32-6.91,18.85-3.07,8.54-6.47,18.18-10.21,28.92-3.75,10.75-7.48,21.74-11.22,32.96s-7.16,21.67-10.21,31.36c-3.07,9.69-5.38,17.62-6.91,23.74-.96,3.65-1.82,6.82-2.59,9.5-.77,2.7-1.16,5.38-1.16,8.06,0,5.96,2.4,10.61,7.2,13.96,4.8,3.35,11.99,5.04,21.59,5.04,4.22,0,7.87-.37,10.94-1.14,3.07-.77,5.85-1.54,8.34-2.31.77-2.89,1.54-5.85,2.3-8.92.77-3.07,1.59-6.24,2.46-9.5.86-3.26,1.72-6.71,2.59-10.36.55-2.34,1.26-4.78,1.93-7.2h52.05l5.17,19.86c1.72,6.52,4.4,11.36,8.06,14.52,3.64,3.17,10.16,4.76,19.56,4.76,6.33,0,11.81-.86,16.42-2.59,4.59-1.74,8.06-3.84,10.36-6.33-2.89-10.76-6.24-22.88-10.08-36.41ZM990.27,103.96c-3.42,14.92-28.45,18.96-40.36,13.16-5.86-2.85-14.25-14.21-14.76-20.72-1.17-14.99,11.66-29.83,26.52-31.12,6.83-.59,12.7.74,18.01,5.13,11.68,9.66,13.99,18.67,10.58,33.54Z"/>
</svg>