<?xml version="1.0" encoding="UTF-8"?>
<svg id="Calque_1" data-name="Calque 1" xmlns="http://www.w3.org/2000/svg" viewBox="0 0 768 214.79">
  <defs>
    <style>
      .cls-1 {
        fill: #fff;
      }

      .cls-2 {
        fill: #aa562f;
      }
    </style>
  </defs>
  <path class="cls-2" d="M130.04,49.91c0,3.29-.85,6.21-2.57,8.77-1.69,2.56-3.67,4.57-5.91,6.01-3.29-2.23-6.91-4.14-10.85-5.72-3.94-1.58-8.49-2.36-13.61-2.36-6.7,0-12.39,1.41-17.06,4.24-4.66,2.83-8.22,6.9-10.64,12.23-2.43,5.32-3.65,11.73-3.65,19.23,0,11.56,2.91,20.38,8.77,26.41,5.85,6.06,13.97,9.08,24.37,9.08,5.38,0,9.95-.72,13.7-2.17,3.74-1.45,7.33-3.08,10.75-4.93,2.23,1.71,3.98,3.88,5.23,6.51s1.87,5.65,1.87,9.06c0,3.03-.78,5.79-2.38,8.29-1.57,2.49-4.26,4.6-8.08,6.3-2.38,1.05-5.71,2.11-10.05,3.16-4.34,1.05-9.6,1.58-15.79,1.58-11.82,0-22.57-2.25-32.22-6.71-9.68-4.47-17.36-11.36-23.08-20.7-5.71-9.33-8.58-21.3-8.58-35.89,0-13.67,2.76-25.21,8.28-34.61,5.53-9.4,12.98-16.56,22.38-21.49,9.4-4.93,19.76-7.39,31.07-7.39,8.01,0,14.85.92,20.5,2.76,5.66,1.84,10,4.34,13.02,7.49,3.02,3.16,4.53,6.77,4.53,10.85Z"/>
  <path class="cls-2" d="M561.41,122.68c-1.71,1.31-3.92,2.43-6.6,3.35-2.7.91-5.82,1.37-9.37,1.37-4.74,0-8.64-.59-11.73-1.77-3.09-1.18-5.1-3.22-6.01-6.11-3.68-11.7-6.71-21.1-9.08-28.2-2.36-7.1-4.21-13.34-5.52-18.73h-.99c-.39,7.75-.69,14.82-.89,21.2s-.33,12.55-.4,18.53c-.06,5.98-.19,12.09-.39,18.35-.21,6.24-.5,13.11-.89,20.61-1.72.53-3.95,1.05-6.71,1.58-2.76.51-5.52.78-8.28.78-5.65,0-10.12-.92-13.4-2.76-3.29-1.84-4.93-5.19-4.93-10.05,0-3.29.13-7.79.39-13.51.27-5.73.63-12.16,1.09-19.33.46-7.16.91-14.69,1.37-22.57.46-7.89.96-15.71,1.49-23.47.51-7.75.98-14.99,1.37-21.69,1.05-1.71,3.35-3.55,6.91-5.52,3.54-1.98,8.54-2.96,14.98-2.96,6.97,0,12.45,1.08,16.47,3.25,4.01,2.17,6.87,5.69,8.58,10.55,1.58,4.21,3.29,9.17,5.12,14.89,1.84,5.71,3.68,11.5,5.52,17.35,1.85,5.85,3.48,11.08,4.93,15.68h.99c3.16-10.91,6.34-21.59,9.56-32.04s6.09-19.09,8.58-25.93c1.98-1.05,4.53-1.93,7.69-2.66,3.16-.73,6.57-1.08,10.26-1.08,6.44,0,11.7.96,15.78,2.86,4.07,1.91,6.43,4.63,7.1,8.18.53,2.63,1.08,6.64,1.67,12.03.59,5.39,1.22,11.57,1.87,18.54.65,6.96,1.31,14.23,1.98,21.79.65,7.56,1.28,14.89,1.87,21.99.59,7.09,1.08,13.51,1.48,19.22.4,5.73.65,10.22.78,13.51-2.23,1.32-4.57,2.27-7,2.86-2.44.59-5.56.89-9.37.89-4.85,0-9.04-.86-12.52-2.57-3.48-1.71-5.35-5.06-5.62-10.05-.53-9.59-.91-18.54-1.18-26.82-.26-8.28-.46-15.84-.59-22.67-.13-6.84-.33-12.82-.59-17.95h-.99c-1.31,5.13-3.22,11.57-5.71,19.33-2.5,7.76-5.52,17.68-9.08,29.78Z"/>
  <path class="cls-2" d="M464.52,57.51c-5.52-9.4-13-16.53-22.48-21.39-9.46-4.87-20.04-7.3-31.75-7.3s-22.25,2.43-31.65,7.3c-9.4,4.87-16.86,12-22.38,21.39-5.52,9.4-8.28,20.93-8.28,34.61s2.68,25.24,8.08,34.7c5.39,9.46,12.79,16.64,22.18,21.49,9.4,4.87,20.08,7.3,32.04,7.3s22.65-2.44,32.04-7.3c9.4-4.85,16.83-12.03,22.29-21.49,5.46-9.46,8.18-21.03,8.18-34.7s-2.76-25.21-8.28-34.61ZM434.65,79.56c-2.93,9.51-8.91,17.75-16.36,24.34-8.11,7.17-19.29,15.61-23.24,11.66-6.47-6.47-3.76-22.11,6.47-32.33,10.49-10.49,20.98-16.72,24.56-18.7.85-.47,1.8-.74,2.76-.55,5.48,1.09,8.05,8.34,5.82,15.58Z"/>
  <path class="cls-2" d="M730.83,122.98c-2.63-9.27-5.35-18.81-8.18-28.6-2.84-9.79-5.6-19.19-8.29-28.2-2.7-9-5.23-16.86-7.59-23.56-1.31-4.2-4.53-7.26-9.67-9.17-5.12-1.91-10.98-2.86-17.55-2.86-4.47,0-9,.6-13.6,1.78-4.61,1.18-8.02,2.43-10.26,3.75-1.05,2.76-2.63,7.07-4.74,12.91-2.11,5.85-4.43,12.45-7,19.82-2.57,7.36-5.12,14.89-7.69,22.58-2.57,7.69-4.9,14.85-7,21.48-2.11,6.64-3.68,12.07-4.74,16.27-.65,2.5-1.25,4.67-1.77,6.51-.53,1.85-.8,3.68-.8,5.52,0,4.08,1.64,7.27,4.93,9.56,3.29,2.3,8.22,3.45,14.79,3.45,2.89,0,5.39-.26,7.5-.78,2.11-.53,4.01-1.05,5.71-1.58.53-1.98,1.05-4.01,1.58-6.11.53-2.11,1.09-4.28,1.68-6.51.59-2.23,1.18-4.6,1.77-7.1.38-1.6.87-3.28,1.33-4.93h35.66l3.54,13.61c1.18,4.47,3.02,7.78,5.52,9.95,2.49,2.17,6.96,3.26,13.4,3.26,4.34,0,8.09-.59,11.25-1.77,3.15-1.19,5.52-2.63,7.1-4.34-1.98-7.37-4.28-15.68-6.91-24.94ZM695.99,96.48c-4.48,3.81-14.37,1.25-20.38-5.84-6.17-7.27-9.62-14.32-10.7-16.72-.26-.57-.38-1.2-.21-1.8.99-3.45,5.76-4.72,10.29-2.91,5.94,2.38,10.91,6.64,14.75,11.76,4.17,5.57,8.99,13.18,6.26,15.51Z"/>
  <path class="cls-2" d="M238.16,33.94c-2.89-2.37-7.63-3.55-14.2-3.55-2.88,0-5.88.23-8.96.69-3.09.46-5.42.82-7.01,1.08-5.54.6-6.77,43.36-17.45,46.54h-2.92c-13.45-4.54-17.7-35.63-17.7-35.63v.11c-.47-4.47-1.82-7.66-4.12-9.44-2.9-2.23-7.63-3.35-14.2-3.35-2.9,0-5.89.23-8.99.69-3.08.46-5.42.82-6.98,1.08v105.1c0,6.05,1.37,10.3,4.13,12.72,2.76,2.43,7.55,3.65,14.39,3.65,3.16,0,6.25-.19,9.27-.59,3.02-.4,5.25-.78,6.71-1.18,7.35-2.34,5.4-43.25,16.74-45.95h2.59c12.11,2.78,17.43,27.79,18.76,35.3.04.31.11.59.16.89.13.8.21,1.29.21,1.29v-.39c.63,3.04,1.77,5.43,3.54,6.98,2.76,2.43,7.56,3.65,14.39,3.65,3.16,0,6.24-.19,9.27-.59,3.03-.4,5.26-.78,6.7-1.18V47.15c0-6.44-1.44-10.85-4.34-13.21Z"/>
  <g>
    <path class="cls-1" d="M195.53,185.82v-18.1h12.41v1.65h-10.5v14.79h10.89v1.65h-12.8ZM197.23,177.44v-1.63h9.57v1.63h-9.57Z"/>
    <path class="cls-1" d="M210.91,179.61v-1.6h6.78v1.6h-6.78Z"/>
    <path class="cls-1" d="M226.71,185.98c-1.34,0-2.63-.22-3.86-.66s-2.18-1-2.85-1.69l.75-1.48c.64.63,1.5,1.14,2.58,1.57,1.07.42,2.21.64,3.4.64s2.06-.15,2.78-.43c.71-.28,1.24-.67,1.58-1.15.33-.49.51-1.02.51-1.6,0-.71-.21-1.28-.61-1.71-.4-.43-.93-.77-1.59-1.02-.65-.25-1.38-.47-2.17-.66-.79-.19-1.58-.39-2.38-.61-.79-.21-1.52-.51-2.18-.87-.66-.37-1.19-.84-1.6-1.44-.4-.59-.61-1.37-.61-2.34,0-.9.24-1.72.71-2.48.47-.75,1.2-1.35,2.18-1.81.99-.46,2.24-.69,3.78-.69,1.02,0,2.03.15,3.02.43s1.86.68,2.59,1.17l-.65,1.53c-.78-.52-1.6-.9-2.47-1.14-.87-.25-1.71-.37-2.52-.37-1.09,0-1.98.15-2.69.44s-1.23.68-1.57,1.17-.51,1.05-.51,1.67c0,.71.2,1.28.61,1.71.41.43.94.76,1.6,1.01.66.24,1.4.45,2.18.64.8.19,1.58.4,2.37.62.78.23,1.51.52,2.17.87.66.35,1.2.83,1.6,1.41s.61,1.35.61,2.3c0,.88-.25,1.7-.73,2.44-.49.75-1.22,1.36-2.21,1.81s-2.27.69-3.82.69Z"/>
    <path class="cls-1" d="M237.63,185.82v-18.1h6.78c1.53,0,2.85.25,3.96.74,1.1.49,1.95,1.19,2.54,2.12.59.93.9,2.04.9,3.35s-.3,2.37-.9,3.3-1.44,1.64-2.54,2.13-2.42.75-3.96.75h-5.71l.85-.91v6.62h-1.91ZM239.54,179.36l-.85-.93h5.66c1.81,0,3.18-.4,4.12-1.18s1.41-1.89,1.41-3.32-.47-2.57-1.41-3.37c-.94-.79-2.31-1.19-4.12-1.19h-5.66l.85-.9v10.89Z"/>
    <path class="cls-1" d="M264.11,185.98c-1.36,0-2.62-.23-3.79-.69-1.16-.45-2.17-1.1-3.02-1.94-.85-.84-1.52-1.81-1.99-2.92-.48-1.11-.71-2.33-.71-3.66s.23-2.54.71-3.66c.47-1.11,1.14-2.09,1.99-2.92s1.86-1.48,3.01-1.94c1.16-.46,2.42-.69,3.8-.69s2.62.23,3.78.69c1.16.45,2.16,1.1,3.02,1.93.85.83,1.52,1.8,1.99,2.92.47,1.12.71,2.34.71,3.67s-.24,2.56-.71,3.67c-.47,1.12-1.14,2.1-1.99,2.92-.86.83-1.86,1.47-3.02,1.93s-2.41.69-3.78.69ZM264.11,184.27c1.09,0,2.09-.18,3.02-.56.92-.37,1.72-.9,2.4-1.58.68-.68,1.21-1.47,1.59-2.38.38-.9.57-1.9.57-2.99s-.19-2.08-.57-2.99c-.38-.9-.91-1.7-1.59-2.38s-1.48-1.21-2.4-1.57c-.93-.37-1.93-.56-3.02-.56s-2.09.18-3.02.56c-.93.37-1.74.9-2.43,1.57-.69.68-1.22,1.48-1.6,2.38-.38.91-.57,1.9-.57,2.99s.19,2.06.57,2.97c.38.92.92,1.71,1.6,2.39s1.5,1.21,2.43,1.58c.93.37,1.94.56,3.02.56Z"/>
    <path class="cls-1" d="M277.9,185.82v-18.1h6.78c2.29,0,4.1.55,5.42,1.64s1.98,2.61,1.98,4.57c0,1.28-.3,2.37-.9,3.3s-1.44,1.63-2.54,2.12-2.42.74-3.96.74h-5.71l.85-.88v6.62h-1.91ZM279.82,179.36l-.85-.9h5.66c1.81,0,3.18-.4,4.12-1.19.94-.79,1.41-1.9,1.41-3.33s-.47-2.57-1.41-3.37c-.94-.79-2.31-1.19-4.12-1.19h-5.66l.85-.9v10.89ZM290.27,185.82l-4.65-6.57h2.06l4.69,6.57h-2.1Z"/>
    <path class="cls-1" d="M299.86,185.82v-16.45h-6.36v-1.65h14.64v1.65h-6.36v16.45h-1.91Z"/>
    <path class="cls-1" d="M316.56,179.61v-1.6h6.78v1.6h-6.78Z"/>
    <path class="cls-1" d="M342.48,185.98c-1.36,0-2.62-.23-3.78-.69s-2.15-1.1-3-1.93-1.5-1.8-1.98-2.92c-.48-1.12-.71-2.34-.71-3.67s.23-2.55.71-3.67c.47-1.12,1.14-2.1,1.99-2.92s1.86-1.47,3.01-1.93c1.16-.46,2.41-.69,3.78-.69s2.54.22,3.7.66c1.16.44,2.13,1.1,2.92,1.98l-1.22,1.22c-.74-.76-1.56-1.31-2.46-1.65-.9-.33-1.86-.5-2.9-.5s-2.09.18-3.02.56c-.93.37-1.74.9-2.43,1.57-.69.68-1.22,1.48-1.62,2.38-.39.91-.58,1.9-.58,2.99s.2,2.08.58,2.99c.39.91.93,1.7,1.62,2.38s1.5,1.21,2.43,1.58c.93.37,1.94.56,3.02.56s2-.17,2.9-.52c.9-.34,1.72-.9,2.46-1.65l1.22,1.22c-.8.88-1.77,1.54-2.92,1.99s-2.4.68-3.73.68Z"/>
    <path class="cls-1" d="M356.89,185.82v-6.72l.44,1.19-7.68-12.57h2.05l6.75,11.04h-1.09l6.75-11.04h1.91l-7.68,12.57.44-1.19v6.72h-1.89Z"/>
    <path class="cls-1" d="M368.61,185.82v-18.1h7.81c2.01,0,3.58.4,4.69,1.21,1.11.81,1.67,1.96,1.67,3.44,0,.99-.23,1.81-.69,2.48-.45.68-1.08,1.18-1.86,1.53s-1.64.52-2.57.52l.44-.62c1.16,0,2.15.18,2.99.53.84.35,1.49.88,1.96,1.57.46.7.69,1.57.69,2.6,0,1.53-.56,2.73-1.69,3.57-1.13.85-2.84,1.27-5.11,1.27h-8.33ZM370.52,184.24h6.39c1.58,0,2.8-.27,3.64-.81s1.27-1.41,1.27-2.6-.42-2.03-1.27-2.57-2.06-.81-3.64-.81h-6.6v-1.58h5.97c1.45,0,2.58-.28,3.38-.83s1.2-1.37,1.2-2.46-.4-1.93-1.2-2.47-1.93-.81-3.38-.81h-5.76v14.95Z"/>
    <path class="cls-1" d="M388.1,185.82v-18.1h12.41v1.65h-10.5v14.79h10.89v1.65h-12.8ZM389.81,177.44v-1.63h9.57v1.63h-9.57Z"/>
    <path class="cls-1" d="M405.41,185.82v-18.1h6.78c2.29,0,4.1.55,5.42,1.64s1.98,2.61,1.98,4.57c0,1.28-.3,2.37-.9,3.3s-1.44,1.63-2.54,2.12-2.42.74-3.96.74h-5.71l.85-.88v6.62h-1.91ZM407.32,179.36l-.85-.9h5.66c1.81,0,3.18-.4,4.12-1.19.94-.79,1.41-1.9,1.41-3.33s-.47-2.57-1.41-3.37c-.94-.79-2.31-1.19-4.12-1.19h-5.66l.85-.9v10.89ZM417.77,185.82l-4.65-6.57h2.06l4.69,6.57h-2.1Z"/>
    <path class="cls-1" d="M431.96,185.98c-1.36,0-2.62-.23-3.78-.69s-2.15-1.1-3-1.93-1.5-1.8-1.98-2.92c-.48-1.12-.71-2.34-.71-3.67s.23-2.55.71-3.67c.47-1.12,1.14-2.1,1.99-2.92s1.86-1.47,3.01-1.93c1.16-.46,2.41-.69,3.78-.69s2.54.22,3.7.66c1.16.44,2.13,1.1,2.92,1.98l-1.22,1.22c-.74-.76-1.56-1.31-2.46-1.65-.9-.33-1.86-.5-2.9-.5s-2.09.18-3.02.56c-.93.37-1.74.9-2.43,1.57-.69.68-1.22,1.48-1.62,2.38-.39.91-.58,1.9-.58,2.99s.2,2.08.58,2.99c.39.91.93,1.7,1.62,2.38s1.5,1.21,2.43,1.58c.93.37,1.94.56,3.02.56s2-.17,2.9-.52c.9-.34,1.72-.9,2.46-1.65l1.22,1.22c-.8.88-1.77,1.54-2.92,1.99s-2.4.68-3.73.68Z"/>
    <path class="cls-1" d="M439.07,185.82l8.28-18.1h1.89l8.28,18.1h-2.02l-7.6-16.99h.78l-7.6,16.99h-2ZM442.33,180.98l.57-1.55h10.53l.57,1.55h-11.67Z"/>
    <path class="cls-1" d="M460.52,185.82v-18.1h12.41v1.65h-10.5v16.45h-1.91ZM462.22,178.14v-1.65h9.57v1.65h-9.57Z"/>
    <path class="cls-1" d="M476.89,185.82v-18.1h12.41v1.65h-10.5v14.79h10.89v1.65h-12.8ZM478.59,177.44v-1.63h9.57v1.63h-9.57ZM481.42,166.24l3.54-3.21h2.46l-4.19,3.21h-1.81Z"/>
    <path class="cls-1" d="M499.57,179.61v-1.6h6.78v1.6h-6.78Z"/>
    <path class="cls-1" d="M517.62,185.82v-18.1h1.91v18.1h-1.91ZM519.28,181.32l-.08-2.32,10.97-11.28h2.2l-7.99,8.38-1.09,1.16-4.01,4.06ZM530.63,185.82l-7.81-9,1.29-1.4,8.8,10.4h-2.28Z"/>
    <path class="cls-1" d="M536.01,185.82v-18.1h6.78c1.53,0,2.85.25,3.96.74,1.1.49,1.95,1.19,2.54,2.12.59.93.9,2.04.9,3.35s-.3,2.37-.9,3.3-1.44,1.64-2.54,2.13-2.42.75-3.96.75h-5.71l.85-.91v6.62h-1.91ZM537.92,179.36l-.85-.93h5.66c1.81,0,3.18-.4,4.12-1.18s1.41-1.89,1.41-3.32-.47-2.57-1.41-3.37c-.94-.79-2.31-1.19-4.12-1.19h-5.66l.85-.9v10.89Z"/>
    <path class="cls-1" d="M562.49,185.98c-1.36,0-2.62-.23-3.79-.69-1.16-.45-2.17-1.1-3.02-1.94-.85-.84-1.52-1.81-1.99-2.92-.48-1.11-.71-2.33-.71-3.66s.23-2.54.71-3.66c.47-1.11,1.14-2.09,1.99-2.92s1.86-1.48,3.01-1.94c1.16-.46,2.42-.69,3.8-.69s2.62.23,3.78.69c1.16.45,2.16,1.1,3.02,1.93.85.83,1.52,1.8,1.99,2.92.47,1.12.71,2.34.71,3.67s-.24,2.56-.71,3.67c-.47,1.12-1.14,2.1-1.99,2.92-.86.83-1.86,1.47-3.02,1.93s-2.41.69-3.78.69ZM562.49,184.27c1.09,0,2.09-.18,3.02-.56.92-.37,1.72-.9,2.4-1.58.68-.68,1.21-1.47,1.59-2.38.38-.9.57-1.9.57-2.99s-.19-2.08-.57-2.99c-.38-.9-.91-1.7-1.59-2.38s-1.48-1.21-2.4-1.57c-.93-.37-1.93-.56-3.02-.56s-2.09.18-3.02.56c-.93.37-1.74.9-2.43,1.57-.69.68-1.22,1.48-1.6,2.38-.38.91-.57,1.9-.57,2.99s.19,2.06.57,2.97c.38.92.92,1.71,1.6,2.39s1.5,1.21,2.43,1.58c.93.37,1.94.56,3.02.56Z"/>
    <path class="cls-1" d="M576.28,185.82v-18.1h6.78c1.53,0,2.85.25,3.96.74,1.1.49,1.95,1.19,2.54,2.12.59.93.9,2.04.9,3.35s-.3,2.37-.9,3.3-1.44,1.64-2.54,2.13-2.42.75-3.96.75h-5.71l.85-.91v6.62h-1.91ZM578.19,179.36l-.85-.93h5.66c1.81,0,3.18-.4,4.12-1.18s1.41-1.89,1.41-3.32-.47-2.57-1.41-3.37c-.94-.79-2.31-1.19-4.12-1.19h-5.66l.85-.9v10.89Z"/>
  </g>
  <path class="cls-2" d="M344.96,131.95c-2.23-3.03-4.7-6.32-7.39-9.86-2.7-3.56-5.55-7.24-8.58-11.05-1.32-1.67-2.58-3.4-3.88-5.09,5.83-3.37,10.68-7.62,14.44-12.85,4.53-6.31,6.8-13.47,6.8-21.5,0-12.88-4.61-23.17-13.8-30.86-9.2-7.7-22.88-11.54-41.02-11.54-6.7,0-13.02.37-18.92,1.08-5.93.73-11.12,1.87-15.59,3.45-2.5.92-4.54,2.14-6.11,3.65-1.58,1.51-2.36,3.65-2.36,6.41v93.46c0,6.05,1.37,10.3,4.13,12.72,2.76,2.43,7.55,3.65,14.39,3.65,3.16,0,6.25-.19,9.27-.59,3.02-.4,5.25-.78,6.71-1.18v-38.45h10.48l16.73,27.01c2.49,4.08,5.23,7.37,8.19,9.86,2.95,2.49,7.25,3.75,12.91,3.75,4.34,0,8.24-1.26,11.73-3.75,3.48-2.49,5.88-5.98,7.19-10.45-1.31-2.23-3.09-4.87-5.33-7.88ZM316.31,77.16c-2.73,11.92-22.74,15.15-32.26,10.52-4.68-2.28-11.39-11.36-11.8-16.56-.94-11.98,9.32-23.84,21.2-24.87,5.46-.47,10.15.59,14.39,4.1,9.33,7.72,11.18,14.92,8.46,26.81Z"/>
</svg>