<?xml version="1.0" encoding="UTF-8"?>
<svg id="Calque_1" data-name="Calque 1" xmlns="http://www.w3.org/2000/svg" viewBox="0 0 768 768">
  <defs>
    <style>
      .cls-1 {
        fill: #10112f;
      }
    </style>
  </defs>
  <path class="cls-1" d="M347.87,251.01c0,10.33-2.66,19.54-8.07,27.59-5.33,8.05-11.54,14.37-18.57,18.91-10.33-7.02-21.72-13.02-34.11-17.98-12.39-4.96-26.68-7.43-42.79-7.43-21.07,0-38.95,4.44-53.64,13.32-14.65,8.9-25.83,21.7-33.46,38.45-7.63,16.73-11.46,36.87-11.46,60.44,0,36.35,9.16,64.08,27.57,83.05,18.41,19.05,43.92,28.54,76.61,28.54,16.91,0,31.28-2.26,43.07-6.82,11.75-4.56,23.05-9.69,33.78-15.5,7.02,5.37,12.51,12.19,16.43,20.46,3.92,8.27,5.89,17.76,5.89,28.5,0,9.53-2.46,18.2-7.47,26.07-4.92,7.83-13.4,14.45-25.39,19.82-7.47,3.31-17.96,6.62-31.6,9.93-13.64,3.31-30.19,4.96-49.65,4.96-37.17,0-70.96-7.06-101.31-21.11-30.43-14.05-54.57-35.72-72.57-65.07-17.96-29.34-26.96-66.96-26.96-112.84,0-42.99,8.68-79.25,26.03-108.82,17.4-29.55,40.81-52.07,70.35-67.57,29.55-15.5,62.12-23.25,97.68-23.25,25.19,0,46.7,2.91,64.46,8.68,17.8,5.79,31.44,13.64,40.93,23.55,9.49,9.93,14.25,21.29,14.25,34.11Z"/>
  <path class="cls-1" d="M707.22,272.46c-17.74-30.2-41.8-53.12-72.25-68.76-30.41-15.64-64.41-23.46-102.04-23.46s-71.5,7.82-101.71,23.46c-30.2,15.64-54.18,38.56-71.92,68.76-17.74,30.2-26.61,67.28-26.61,111.22s8.62,81.12,25.95,111.53c17.33,30.41,41.1,53.47,71.3,69.07,30.2,15.64,64.53,23.48,102.99,23.48s72.78-7.84,102.99-23.48c30.2-15.6,54.09-38.66,71.63-69.07,17.54-30.41,26.28-67.59,26.28-111.53s-8.87-81.01-26.61-111.22ZM645.86,418.53c0,11.21-9.17,20.38-20.39,20.38h-72.18c8.51,38.22,22.07,33.13,25.47,34.83,3.4,1.7.19,6.1.19,6.1h-91.08c-2.55-2.39,0-5.25,0-5.25,0,0,15.29,0,20.39-13.59,5.1-13.59,6.47-22.09,6.47-22.09h-72.72c-11.21,0-20.39-9.17-20.39-20.38v-105.33c0-11.21,9.17-20.39,20.39-20.39h183.47c11.21,0,20.39,9.17,20.39,20.39v105.33Z"/>
</svg>