<?xml version="1.0" encoding="UTF-8"?>
<svg id="Calque_1" data-name="Calque 1" xmlns="http://www.w3.org/2000/svg" viewBox="0 0 768 214.79">
  <defs>
    <style>
      .cls-1 {
        fill: #10112f;
      }

      .cls-2 {
        fill: #fff;
      }
    </style>
  </defs>
  <path class="cls-1" d="M130.14,49.71c0,3.3-.85,6.24-2.58,8.81-1.7,2.57-3.68,4.59-5.93,6.04-3.3-2.24-6.93-4.16-10.89-5.74-3.96-1.58-8.52-2.37-13.66-2.37-6.73,0-12.43,1.42-17.12,4.25-4.68,2.84-8.25,6.93-10.68,12.27-2.44,5.34-3.66,11.77-3.66,19.29,0,11.6,2.92,20.45,8.8,26.51,5.88,6.08,14.02,9.11,24.45,9.11,5.4,0,9.99-.72,13.75-2.18,3.75-1.46,7.36-3.09,10.78-4.95,2.24,1.71,3.99,3.89,5.24,6.53,1.25,2.64,1.88,5.67,1.88,9.1,0,3.04-.79,5.81-2.38,8.32-1.57,2.5-4.28,4.61-8.1,6.33-2.38,1.06-5.73,2.11-10.09,3.17-4.35,1.06-9.64,1.58-15.85,1.58-11.87,0-22.65-2.25-32.34-6.74-9.71-4.48-17.42-11.4-23.17-20.77-5.73-9.37-8.61-21.37-8.61-36.02,0-13.72,2.77-25.3,8.31-34.74,5.55-9.43,13.03-16.62,22.46-21.57,9.43-4.95,19.83-7.42,31.18-7.42,8.04,0,14.91.93,20.58,2.77,5.68,1.85,10.04,4.35,13.06,7.52,3.03,3.17,4.55,6.8,4.55,10.89Z"/>
  <path class="cls-1" d="M563.05,122.74c-1.71,1.31-3.93,2.44-6.62,3.36-2.71.91-5.84,1.38-9.41,1.38-4.75,0-8.67-.59-11.78-1.78-3.11-1.19-5.11-3.23-6.03-6.13-3.7-11.74-6.74-21.18-9.11-28.3-2.37-7.12-4.23-13.39-5.54-18.8h-.99c-.39,7.78-.7,14.87-.89,21.27-.19,6.4-.33,12.59-.4,18.6-.06,6-.19,12.14-.39,18.41-.21,6.26-.5,13.15-.89,20.68-1.73.53-3.97,1.06-6.74,1.58-2.77.52-5.54.79-8.31.79-5.67,0-10.15-.93-13.45-2.77-3.3-1.84-4.95-5.21-4.95-10.09,0-3.3.13-7.82.39-13.55.27-5.75.63-12.2,1.1-19.4.46-7.19.91-14.74,1.38-22.65.46-7.92.97-15.76,1.49-23.55.52-7.78.98-15.04,1.38-21.77,1.06-1.71,3.36-3.56,6.93-5.54,3.56-1.98,8.57-2.97,15.04-2.97,7,0,12.5,1.09,16.53,3.27,4.02,2.18,6.89,5.71,8.61,10.58,1.58,4.23,3.3,9.21,5.14,14.95,1.84,5.73,3.7,11.54,5.54,17.41,1.86,5.87,3.49,11.12,4.95,15.73h.99c3.17-10.95,6.36-21.67,9.6-32.16,3.23-10.49,6.11-19.16,8.61-26.03,1.98-1.05,4.55-1.94,7.72-2.67,3.17-.73,6.6-1.09,10.29-1.09,6.47,0,11.74.96,15.83,2.87,4.08,1.91,6.45,4.65,7.12,8.21.53,2.64,1.08,6.67,1.67,12.07.59,5.41,1.22,11.61,1.88,18.6.66,6.99,1.31,14.28,1.98,21.86.66,7.59,1.29,14.95,1.88,22.07.59,7.11,1.08,13.55,1.48,19.29.4,5.75.66,10.26.79,13.55-2.24,1.33-4.59,2.28-7.02,2.87-2.45.59-5.58.89-9.41.89-4.87,0-9.07-.86-12.56-2.58-3.49-1.71-5.37-5.08-5.64-10.09-.53-9.62-.91-18.6-1.19-26.91-.26-8.31-.46-15.89-.59-22.75-.13-6.86-.33-12.86-.59-18.01h-.99c-1.31,5.15-3.23,11.62-5.73,19.4-2.51,7.79-5.54,17.75-9.11,29.88Z"/>
  <path class="cls-1" d="M238.64,33.68c-2.9-2.38-7.65-3.56-14.25-3.56-2.89,0-5.9.23-8.99.69-3.11.46-5.44.82-7.03,1.09-5.56.6-6.79,43.51-17.51,46.7h-2.93c-13.5-4.55-17.76-35.76-17.76-35.76v.12c-.47-4.49-1.83-7.69-4.13-9.48-2.91-2.24-7.65-3.36-14.25-3.36-2.91,0-5.91.23-9.02.69-3.09.46-5.44.82-7.01,1.09v105.48c0,6.07,1.38,10.33,4.15,12.77,2.77,2.43,7.58,3.66,14.44,3.66,3.17,0,6.27-.19,9.3-.59,3.03-.4,5.27-.79,6.74-1.19,7.38-2.35,5.42-43.4,16.8-46.11h2.6c12.16,2.79,17.49,27.89,18.83,35.42.04.32.11.59.16.9.13.8.21,1.29.21,1.29v-.39c.63,3.05,1.78,5.45,3.55,7.01,2.77,2.43,7.59,3.66,14.44,3.66,3.17,0,6.26-.19,9.3-.59,3.04-.4,5.28-.79,6.73-1.19V46.94c0-6.46-1.44-10.89-4.35-13.26Z"/>
  <g>
    <path class="cls-2" d="M195.85,186.1v-18.17h12.46v1.66h-10.54v14.85h10.92v1.66h-12.84ZM197.56,177.69v-1.63h9.61v1.63h-9.61Z"/>
    <path class="cls-2" d="M211.3,179.87v-1.61h6.8v1.61h-6.8Z"/>
    <path class="cls-2" d="M227.15,186.26c-1.35,0-2.64-.22-3.88-.67s-2.19-1.01-2.86-1.7l.75-1.48c.64.63,1.5,1.15,2.59,1.57,1.08.42,2.22.64,3.41.64s2.07-.15,2.79-.43c.72-.29,1.24-.67,1.58-1.15.34-.49.51-1.02.51-1.61,0-.71-.21-1.28-.61-1.72-.41-.43-.94-.77-1.6-1.02-.65-.25-1.38-.48-2.18-.67-.79-.19-1.59-.39-2.39-.61-.79-.22-1.53-.51-2.19-.87-.67-.37-1.2-.84-1.61-1.44-.41-.6-.61-1.38-.61-2.34,0-.9.24-1.73.72-2.48.48-.75,1.2-1.36,2.19-1.81.99-.46,2.25-.69,3.79-.69,1.02,0,2.03.15,3.04.43s1.87.68,2.6,1.18l-.65,1.53c-.78-.52-1.6-.9-2.48-1.14-.87-.25-1.72-.37-2.53-.37-1.09,0-1.99.15-2.7.44-.71.29-1.24.68-1.57,1.18s-.51,1.05-.51,1.67c0,.71.2,1.29.61,1.72.41.43.94.77,1.61,1.01.67.24,1.4.46,2.19.65.8.19,1.59.4,2.38.62.79.23,1.51.52,2.18.87.67.35,1.2.83,1.61,1.42s.61,1.36.61,2.31c0,.89-.25,1.7-.73,2.45-.49.75-1.22,1.36-2.22,1.82s-2.27.69-3.83.69Z"/>
    <path class="cls-2" d="M238.11,186.1v-18.17h6.8c1.54,0,2.86.25,3.97.74,1.11.49,1.96,1.2,2.55,2.12.6.93.9,2.05.9,3.36s-.3,2.38-.9,3.31-1.44,1.64-2.55,2.14-2.43.75-3.97.75h-5.73l.86-.91v6.65h-1.92ZM240.03,179.61l-.86-.93h5.68c1.82,0,3.19-.4,4.14-1.18s1.41-1.89,1.41-3.33-.47-2.58-1.41-3.38c-.94-.79-2.32-1.19-4.14-1.19h-5.68l.86-.91v10.92Z"/>
    <path class="cls-2" d="M264.68,186.26c-1.36,0-2.63-.23-3.8-.69-1.17-.46-2.18-1.11-3.04-1.95-.86-.84-1.52-1.82-2-2.93-.48-1.12-.72-2.34-.72-3.68s.23-2.55.72-3.67c.48-1.12,1.14-2.1,2-2.93s1.86-1.49,3.02-1.95c1.16-.46,2.43-.69,3.81-.69s2.63.23,3.79.69c1.16.46,2.17,1.1,3.03,1.93.86.83,1.52,1.81,2,2.93.48,1.12.72,2.35.72,3.68s-.24,2.57-.72,3.69c-.48,1.13-1.14,2.1-2,2.93-.86.83-1.87,1.48-3.03,1.93s-2.42.69-3.79.69ZM264.68,184.54c1.09,0,2.1-.18,3.03-.56.93-.37,1.73-.9,2.41-1.58.68-.68,1.22-1.48,1.6-2.39.38-.91.57-1.91.57-3s-.19-2.08-.57-3c-.38-.91-.91-1.7-1.6-2.39s-1.48-1.21-2.41-1.58c-.93-.37-1.94-.56-3.03-.56s-2.1.18-3.04.56c-.93.37-1.75.9-2.44,1.58-.69.68-1.23,1.48-1.61,2.39-.38.91-.57,1.91-.57,3s.19,2.07.57,2.98c.38.92.92,1.72,1.61,2.4s1.51,1.21,2.44,1.58c.94.37,1.95.56,3.04.56Z"/>
    <path class="cls-2" d="M278.52,186.1v-18.17h6.8c2.3,0,4.11.55,5.44,1.65,1.32,1.1,1.99,2.62,1.99,4.58,0,1.28-.3,2.38-.9,3.31s-1.44,1.63-2.55,2.13-2.43.74-3.97.74h-5.73l.86-.89v6.65h-1.92ZM280.44,179.61l-.86-.91h5.68c1.82,0,3.19-.4,4.14-1.2.94-.79,1.41-1.91,1.41-3.35s-.47-2.58-1.41-3.38c-.94-.79-2.32-1.19-4.14-1.19h-5.68l.86-.91v10.92ZM290.93,186.1l-4.67-6.59h2.07l4.7,6.59h-2.1Z"/>
    <path class="cls-2" d="M300.56,186.1v-16.51h-6.39v-1.66h14.7v1.66h-6.39v16.51h-1.92Z"/>
    <path class="cls-2" d="M317.32,179.87v-1.61h6.8v1.61h-6.8Z"/>
    <path class="cls-2" d="M343.33,186.26c-1.37,0-2.63-.23-3.79-.69s-2.16-1.1-3.01-1.93-1.51-1.81-1.98-2.93c-.48-1.12-.72-2.35-.72-3.69s.23-2.56.72-3.68c.48-1.13,1.14-2.1,2-2.93s1.86-1.48,3.02-1.93c1.16-.46,2.42-.69,3.79-.69s2.55.22,3.71.67c1.16.44,2.14,1.1,2.93,1.98l-1.22,1.22c-.74-.77-1.57-1.31-2.47-1.65-.9-.34-1.87-.5-2.91-.5s-2.1.18-3.04.56c-.93.37-1.75.9-2.44,1.58-.69.68-1.23,1.48-1.62,2.39-.39.91-.58,1.91-.58,3s.2,2.09.58,3c.39.91.93,1.7,1.62,2.39s1.51,1.21,2.44,1.58c.94.37,1.95.56,3.04.56s2.01-.17,2.91-.52c.9-.34,1.72-.9,2.47-1.66l1.22,1.22c-.8.88-1.77,1.55-2.93,2s-2.41.68-3.74.68Z"/>
    <path class="cls-2" d="M357.79,186.1v-6.75l.44,1.19-7.71-12.61h2.05l6.77,11.08h-1.09l6.77-11.08h1.92l-7.71,12.61.44-1.19v6.75h-1.89Z"/>
    <path class="cls-2" d="M369.55,186.1v-18.17h7.84c2.02,0,3.59.41,4.71,1.22,1.12.82,1.68,1.96,1.68,3.45,0,.99-.23,1.82-.69,2.49-.46.68-1.08,1.18-1.87,1.53s-1.65.52-2.58.52l.44-.62c1.16,0,2.16.18,3,.53.84.35,1.5.88,1.96,1.58.46.7.7,1.57.7,2.61,0,1.54-.56,2.74-1.7,3.58-1.13.85-2.85,1.27-5.13,1.27h-8.36ZM371.47,184.52h6.41c1.59,0,2.81-.27,3.66-.82s1.27-1.41,1.27-2.61-.42-2.03-1.27-2.58-2.07-.82-3.66-.82h-6.62v-1.58h5.99c1.46,0,2.59-.28,3.39-.83s1.2-1.38,1.2-2.47-.4-1.93-1.2-2.48-1.93-.82-3.39-.82h-5.79v15Z"/>
    <path class="cls-2" d="M389.12,186.1v-18.17h12.46v1.66h-10.54v14.85h10.92v1.66h-12.84ZM390.83,177.69v-1.63h9.61v1.63h-9.61Z"/>
    <path class="cls-2" d="M406.48,186.1v-18.17h6.8c2.3,0,4.11.55,5.44,1.65,1.32,1.1,1.99,2.62,1.99,4.58,0,1.28-.3,2.38-.9,3.31s-1.44,1.63-2.55,2.13-2.43.74-3.97.74h-5.73l.86-.89v6.65h-1.92ZM408.4,179.61l-.86-.91h5.68c1.82,0,3.19-.4,4.14-1.2.94-.79,1.41-1.91,1.41-3.35s-.47-2.58-1.41-3.38c-.94-.79-2.32-1.19-4.14-1.19h-5.68l.86-.91v10.92ZM418.89,186.1l-4.67-6.59h2.07l4.7,6.59h-2.1Z"/>
    <path class="cls-2" d="M433.14,186.26c-1.37,0-2.63-.23-3.79-.69s-2.16-1.1-3.01-1.93c-.85-.83-1.51-1.81-1.98-2.93-.48-1.12-.72-2.35-.72-3.69s.23-2.56.72-3.68c.48-1.13,1.14-2.1,2-2.93s1.86-1.48,3.02-1.93c1.16-.46,2.42-.69,3.79-.69s2.55.22,3.71.67c1.16.44,2.14,1.1,2.93,1.98l-1.22,1.22c-.74-.77-1.57-1.31-2.47-1.65-.9-.34-1.87-.5-2.91-.5s-2.1.18-3.04.56c-.93.37-1.75.9-2.44,1.58-.69.68-1.23,1.48-1.62,2.39-.39.91-.58,1.91-.58,3s.2,2.09.58,3c.39.91.93,1.7,1.62,2.39.69.68,1.51,1.21,2.44,1.58.94.37,1.95.56,3.04.56s2.01-.17,2.91-.52c.9-.34,1.72-.9,2.47-1.66l1.22,1.22c-.8.88-1.77,1.55-2.93,2s-2.41.68-3.74.68Z"/>
    <path class="cls-2" d="M440.27,186.1l8.31-18.17h1.89l8.31,18.17h-2.03l-7.63-17.05h.78l-7.63,17.05h-2ZM443.54,181.25l.57-1.56h10.56l.58,1.56h-11.71Z"/>
    <path class="cls-2" d="M461.79,186.1v-18.17h12.46v1.66h-10.54v16.51h-1.92ZM463.5,178.39v-1.66h9.61v1.66h-9.61Z"/>
    <path class="cls-2" d="M478.22,186.1v-18.17h12.46v1.66h-10.54v14.85h10.92v1.66h-12.84ZM479.93,177.69v-1.63h9.61v1.63h-9.61ZM482.77,166.45l3.55-3.22h2.47l-4.21,3.22h-1.81Z"/>
    <path class="cls-2" d="M500.98,179.87v-1.61h6.8v1.61h-6.8Z"/>
    <path class="cls-2" d="M519.1,186.1v-18.17h1.92v18.17h-1.92ZM520.76,181.58l-.08-2.33,11.01-11.32h2.21l-8.02,8.41-1.09,1.17-4.02,4.07ZM532.16,186.1l-7.84-9.03,1.3-1.41,8.83,10.44h-2.29Z"/>
    <path class="cls-2" d="M537.55,186.1v-18.17h6.8c1.54,0,2.86.25,3.97.74,1.11.49,1.96,1.2,2.55,2.12.6.93.9,2.05.9,3.36s-.3,2.38-.9,3.31-1.44,1.64-2.55,2.14-2.43.75-3.97.75h-5.73l.86-.91v6.65h-1.92ZM539.47,179.61l-.86-.93h5.68c1.82,0,3.19-.4,4.14-1.18.94-.79,1.41-1.89,1.41-3.33s-.47-2.58-1.41-3.38c-.94-.79-2.32-1.19-4.14-1.19h-5.68l.86-.91v10.92Z"/>
    <path class="cls-2" d="M564.13,186.26c-1.36,0-2.63-.23-3.8-.69-1.17-.46-2.18-1.11-3.04-1.95-.86-.84-1.52-1.82-2-2.93-.48-1.12-.72-2.34-.72-3.68s.23-2.55.72-3.67c.48-1.12,1.14-2.1,2-2.93s1.86-1.49,3.02-1.95c1.16-.46,2.43-.69,3.81-.69s2.63.23,3.79.69c1.16.46,2.17,1.1,3.03,1.93.86.83,1.52,1.81,2,2.93.48,1.12.72,2.35.72,3.68s-.24,2.57-.72,3.69c-.48,1.13-1.14,2.1-2,2.93-.86.83-1.87,1.48-3.03,1.93s-2.42.69-3.79.69ZM564.13,184.54c1.09,0,2.1-.18,3.03-.56.93-.37,1.73-.9,2.41-1.58.68-.68,1.22-1.48,1.6-2.39.38-.91.57-1.91.57-3s-.19-2.08-.57-3c-.38-.91-.91-1.7-1.6-2.39-.68-.68-1.48-1.21-2.41-1.58-.93-.37-1.94-.56-3.03-.56s-2.1.18-3.04.56c-.93.37-1.75.9-2.44,1.58-.69.68-1.23,1.48-1.61,2.39-.38.91-.57,1.91-.57,3s.19,2.07.57,2.98c.38.92.92,1.72,1.61,2.4s1.51,1.21,2.44,1.58c.94.37,1.95.56,3.04.56Z"/>
    <path class="cls-2" d="M577.97,186.1v-18.17h6.8c1.54,0,2.86.25,3.97.74,1.11.49,1.96,1.2,2.55,2.12.6.93.9,2.05.9,3.36s-.3,2.38-.9,3.31c-.6.93-1.44,1.64-2.55,2.14s-2.43.75-3.97.75h-5.73l.86-.91v6.65h-1.92ZM579.89,179.61l-.86-.93h5.68c1.82,0,3.19-.4,4.14-1.18s1.41-1.89,1.41-3.33-.47-2.58-1.41-3.38c-.94-.79-2.32-1.19-4.14-1.19h-5.68l.86-.91v10.92Z"/>
  </g>
  <path class="cls-1" d="M465.81,57.33c-5.54-9.43-13.05-16.59-22.56-21.47-9.5-4.88-20.11-7.32-31.86-7.32s-22.33,2.44-31.76,7.32c-9.43,4.88-16.92,12.04-22.46,21.47-5.54,9.43-8.31,21.01-8.31,34.73s2.69,25.33,8.1,34.83c5.41,9.5,12.83,16.7,22.26,21.57,9.43,4.88,20.15,7.33,32.16,7.33s22.73-2.45,32.16-7.33c9.43-4.87,16.89-12.07,22.37-21.57,5.48-9.5,8.21-21.1,8.21-34.83s-2.77-25.3-8.31-34.73ZM446.65,102.94c0,3.5-2.86,6.37-6.37,6.37h-22.54c2.66,11.94,6.89,10.34,7.95,10.87,1.06.53.06,1.91.06,1.91h-28.44c-.8-.75,0-1.64,0-1.64,0,0,4.77,0,6.37-4.24,1.59-4.24,2.02-6.9,2.02-6.9h-22.71c-3.5,0-6.37-2.86-6.37-6.37v-32.89c0-3.5,2.86-6.37,6.37-6.37h57.29c3.5,0,6.37,2.86,6.37,6.37v32.89Z"/>
  <path class="cls-1" d="M343.82,132.69c-2.24-3.04-4.72-6.34-7.42-9.89-2.71-3.57-5.57-7.27-8.61-11.09-1.33-1.68-2.59-3.41-3.9-5.11,5.85-3.39,10.72-7.65,14.49-12.89,4.55-6.33,6.83-13.52,6.83-21.57,0-12.93-4.63-23.25-13.85-30.97-9.24-7.72-22.96-11.58-41.16-11.58-6.73,0-13.06.37-18.99,1.09-5.95.73-11.16,1.88-15.64,3.47-2.51.93-4.56,2.15-6.13,3.66-1.58,1.52-2.37,3.67-2.37,6.44v93.8c0,6.07,1.38,10.33,4.15,12.77,2.77,2.43,7.58,3.66,14.44,3.66,3.17,0,6.27-.19,9.3-.59,3.03-.4,5.27-.79,6.74-1.19v-38.59h10.51l16.79,27.11c2.5,4.1,5.24,7.4,8.22,9.89,2.96,2.5,7.28,3.76,12.96,3.76,4.35,0,8.27-1.26,11.78-3.76,3.49-2.5,5.9-6,7.21-10.49-1.31-2.24-3.11-4.88-5.35-7.91ZM315.07,77.71c-2.74,11.96-22.82,15.21-32.37,10.56-4.7-2.29-11.43-11.4-11.84-16.62-.94-12.02,9.35-23.93,21.27-24.96,5.48-.47,10.19.59,14.45,4.12,9.37,7.75,11.22,14.98,8.49,26.9Z"/>
  <path class="cls-1" d="M731.07,123.69c-2.64-9.3-5.37-18.88-8.21-28.7-2.85-9.82-5.62-19.26-8.32-28.3-2.71-9.03-5.24-16.92-7.61-23.65-1.31-4.22-4.55-7.29-9.7-9.2-5.14-1.91-11.02-2.87-17.61-2.87-4.48,0-9.03.6-13.64,1.78-4.63,1.19-8.05,2.44-10.29,3.76-1.06,2.77-2.64,7.09-4.75,12.96-2.11,5.87-4.45,12.5-7.02,19.89-2.58,7.39-5.14,14.95-7.72,22.66-2.58,7.72-4.92,14.9-7.02,21.56-2.11,6.66-3.7,12.11-4.75,16.32-.66,2.51-1.25,4.69-1.78,6.53-.53,1.86-.8,3.7-.8,5.54,0,4.1,1.65,7.29,4.95,9.6,3.3,2.31,8.25,3.47,14.84,3.47,2.9,0,5.41-.26,7.52-.79,2.11-.53,4.02-1.06,5.73-1.58.53-1.98,1.06-4.02,1.58-6.13.53-2.11,1.1-4.29,1.69-6.53.59-2.24,1.19-4.61,1.78-7.12.38-1.61.87-3.29,1.33-4.95h35.79l3.56,13.66c1.18,4.48,3.03,7.81,5.54,9.99,2.5,2.18,6.98,3.27,13.45,3.27,4.35,0,8.12-.59,11.29-1.78,3.16-1.2,5.54-2.64,7.12-4.35-1.98-7.4-4.29-15.73-6.93-25.03ZM698.08,91.94c-2.35,10.26-19.56,13.03-27.75,9.05-4.03-1.96-9.8-9.77-10.15-14.25-.81-10.3,8.02-20.51,18.23-21.4,4.69-.41,8.73.51,12.38,3.53,8.03,6.64,9.62,12.84,7.28,23.06Z"/>
</svg>