<?xml version="1.0" encoding="UTF-8"?>
<svg id="Calque_1" data-name="Calque 1" xmlns="http://www.w3.org/2000/svg" viewBox="0 0 768 214.79">
  <defs>
    <style>
      .cls-1 {
        fill: #fda15d;
      }

      .cls-2 {
        fill: #fff;
      }
    </style>
  </defs>
  <path class="cls-1" d="M129.85,50.05c0,3.29-.85,6.22-2.57,8.78-1.7,2.56-3.67,4.57-5.91,6.02-3.29-2.24-6.91-4.14-10.86-5.72s-8.49-2.36-13.62-2.36c-6.71,0-12.4,1.41-17.07,4.24-4.66,2.83-8.22,6.91-10.65,12.24-2.43,5.33-3.65,11.74-3.65,19.24,0,11.57,2.92,20.4,8.78,26.43,5.86,6.06,13.98,9.08,24.38,9.08,5.38,0,9.96-.72,13.71-2.17,3.74-1.45,7.34-3.08,10.75-4.93,2.24,1.71,3.98,3.88,5.23,6.51s1.88,5.65,1.88,9.07c0,3.03-.78,5.79-2.38,8.3-1.57,2.49-4.27,4.6-8.08,6.31-2.38,1.05-5.72,2.11-10.06,3.16-4.34,1.05-9.61,1.58-15.8,1.58-11.83,0-22.59-2.25-32.25-6.72-9.69-4.47-17.37-11.37-23.1-20.71-5.72-9.34-8.58-21.31-8.58-35.92,0-13.68,2.76-25.23,8.29-34.64,5.54-9.4,12.99-16.57,22.39-21.51s19.77-7.4,31.09-7.4c8.02,0,14.86.93,20.52,2.76,5.67,1.84,10.01,4.34,13.03,7.5,3.02,3.16,4.54,6.78,4.54,10.86Z"/>
  <path class="cls-1" d="M561.54,122.87c-1.71,1.31-3.92,2.43-6.6,3.35-2.7.91-5.82,1.37-9.38,1.37-4.74,0-8.65-.59-11.74-1.77-3.1-1.18-5.1-3.22-6.01-6.12-3.69-11.7-6.72-21.12-9.08-28.22-2.36-7.1-4.21-13.35-5.52-18.74h-.99c-.39,7.76-.69,14.83-.89,21.21-.19,6.38-.33,12.56-.4,18.55-.06,5.99-.19,12.1-.39,18.36-.21,6.24-.5,13.12-.89,20.62-1.72.53-3.96,1.05-6.72,1.58-2.76.51-5.52.78-8.29.78-5.65,0-10.12-.93-13.41-2.76-3.29-1.84-4.93-5.19-4.93-10.06,0-3.29.13-7.8.39-13.52.27-5.73.63-12.17,1.09-19.35.46-7.17.91-14.7,1.37-22.59.46-7.89.96-15.72,1.49-23.49.51-7.76.98-15,1.37-21.71,1.05-1.71,3.35-3.55,6.91-5.52,3.55-1.98,8.54-2.96,14.99-2.96,6.98,0,12.46,1.09,16.48,3.26,4.01,2.17,6.87,5.69,8.58,10.55,1.58,4.21,3.29,9.18,5.13,14.9,1.84,5.72,3.69,11.51,5.52,17.36,1.85,5.85,3.48,11.09,4.93,15.69h.99c3.16-10.92,6.35-21.61,9.57-32.07s6.09-19.1,8.58-25.95c1.98-1.05,4.54-1.93,7.7-2.66,3.16-.73,6.58-1.09,10.27-1.09,6.45,0,11.7.96,15.79,2.86,4.07,1.91,6.44,4.64,7.1,8.19.53,2.63,1.08,6.65,1.67,12.04.59,5.4,1.22,11.58,1.88,18.55.66,6.97,1.31,14.24,1.98,21.8.66,7.57,1.28,14.9,1.88,22.01.59,7.09,1.08,13.52,1.48,19.23.4,5.73.66,10.23.78,13.52-2.24,1.32-4.57,2.27-7,2.87-2.44.59-5.56.89-9.38.89-4.86,0-9.04-.86-12.53-2.57-3.48-1.71-5.36-5.06-5.63-10.06-.53-9.6-.91-18.55-1.18-26.84-.26-8.29-.46-15.85-.59-22.69-.13-6.84-.33-12.83-.59-17.96h-.99c-1.31,5.13-3.22,11.58-5.72,19.34-2.51,7.77-5.52,17.7-9.08,29.8Z"/>
  <path class="cls-1" d="M238.06,34.07c-2.89-2.37-7.63-3.55-14.21-3.55-2.88,0-5.88.23-8.97.69-3.1.46-5.42.82-7.01,1.09-5.54.6-6.78,43.39-17.46,46.57h-2.92c-13.46-4.54-17.71-35.66-17.71-35.66v.11c-.47-4.47-1.82-7.66-4.12-9.45-2.9-2.24-7.63-3.35-14.21-3.35-2.9,0-5.9.23-8.99.69-3.08.46-5.42.82-6.99,1.09v105.18c0,6.05,1.37,10.3,4.14,12.73,2.76,2.43,7.55,3.65,14.4,3.65,3.16,0,6.26-.19,9.28-.59,3.02-.4,5.25-.78,6.72-1.18,7.35-2.34,5.4-43.28,16.75-45.98h2.59c12.12,2.78,17.44,27.81,18.77,35.32.04.31.11.59.16.89.13.8.21,1.29.21,1.29v-.39c.63,3.04,1.77,5.43,3.54,6.99,2.76,2.43,7.57,3.65,14.4,3.65,3.16,0,6.24-.19,9.28-.59,3.03-.4,5.27-.78,6.71-1.18V47.29c0-6.44-1.44-10.86-4.34-13.22Z"/>
  <g>
    <path class="cls-2" d="M195.39,186.06v-18.12h12.42v1.66h-10.51v14.81h10.89v1.66h-12.81ZM197.09,177.67v-1.63h9.58v1.63h-9.58Z"/>
    <path class="cls-2" d="M210.79,179.85v-1.61h6.78v1.61h-6.78Z"/>
    <path class="cls-2" d="M226.6,186.22c-1.35,0-2.64-.22-3.87-.66s-2.19-1-2.86-1.69l.75-1.48c.64.63,1.5,1.14,2.58,1.57,1.07.42,2.21.64,3.4.64s2.07-.15,2.79-.43c.71-.28,1.24-.67,1.58-1.15.33-.49.51-1.02.51-1.61,0-.71-.21-1.28-.61-1.71-.4-.43-.94-.77-1.59-1.02-.65-.25-1.38-.47-2.17-.66-.79-.19-1.59-.39-2.38-.61-.79-.21-1.52-.51-2.19-.87-.66-.37-1.19-.84-1.61-1.44-.4-.59-.61-1.37-.61-2.34,0-.9.24-1.73.71-2.48.47-.75,1.2-1.35,2.19-1.81.99-.46,2.24-.69,3.78-.69,1.02,0,2.03.15,3.03.43,1,.28,1.86.68,2.59,1.18l-.65,1.53c-.78-.52-1.6-.9-2.47-1.14-.87-.25-1.71-.37-2.52-.37-1.09,0-1.98.15-2.69.44s-1.23.68-1.57,1.18-.51,1.05-.51,1.67c0,.71.2,1.28.61,1.71.41.43.94.76,1.61,1.01.66.24,1.4.45,2.19.64.8.19,1.59.4,2.37.62.78.23,1.51.52,2.17.87.66.35,1.2.83,1.61,1.42s.61,1.35.61,2.3c0,.88-.25,1.7-.73,2.45-.49.75-1.22,1.36-2.21,1.81-.99.45-2.27.69-3.82.69Z"/>
    <path class="cls-2" d="M237.52,186.06v-18.12h6.78c1.54,0,2.86.25,3.96.74,1.11.49,1.95,1.19,2.55,2.12.59.93.9,2.04.9,3.36s-.3,2.38-.9,3.3-1.44,1.64-2.55,2.14c-1.11.5-2.43.75-3.96.75h-5.72l.85-.91v6.63h-1.91ZM239.44,179.59l-.85-.93h5.67c1.81,0,3.18-.4,4.13-1.18s1.41-1.89,1.41-3.32-.47-2.57-1.41-3.37c-.94-.79-2.31-1.19-4.13-1.19h-5.67l.85-.9v10.89Z"/>
    <path class="cls-2" d="M264.02,186.22c-1.36,0-2.62-.23-3.79-.69-1.16-.45-2.17-1.11-3.03-1.94-.85-.84-1.52-1.81-1.99-2.93-.48-1.11-.71-2.33-.71-3.66s.23-2.55.71-3.66c.47-1.11,1.14-2.09,1.99-2.93s1.86-1.48,3.01-1.94c1.16-.46,2.43-.69,3.8-.69s2.62.23,3.78.69c1.16.45,2.16,1.1,3.02,1.93.85.83,1.52,1.8,1.99,2.93.47,1.12.71,2.34.71,3.67s-.24,2.56-.71,3.68c-.47,1.12-1.14,2.1-1.99,2.93-.86.83-1.86,1.47-3.02,1.93-1.16.45-2.41.69-3.78.69ZM264.02,184.5c1.09,0,2.09-.18,3.02-.56.92-.37,1.73-.9,2.4-1.58.68-.68,1.21-1.47,1.59-2.38.38-.9.57-1.9.57-2.99s-.19-2.08-.57-2.99c-.38-.9-.91-1.7-1.59-2.38s-1.48-1.21-2.4-1.57c-.93-.37-1.93-.56-3.02-.56s-2.09.18-3.03.56c-.93.37-1.74.9-2.43,1.57-.69.68-1.23,1.48-1.61,2.38-.38.91-.57,1.9-.57,2.99s.19,2.07.57,2.98c.38.92.92,1.71,1.61,2.39s1.5,1.21,2.43,1.58c.94.37,1.94.56,3.03.56Z"/>
    <path class="cls-2" d="M277.82,186.06v-18.12h6.78c2.29,0,4.1.55,5.42,1.64,1.32,1.09,1.98,2.62,1.98,4.57,0,1.28-.3,2.38-.9,3.3s-1.44,1.63-2.55,2.12-2.43.74-3.96.74h-5.72l.85-.88v6.63h-1.91ZM279.74,179.59l-.85-.9h5.67c1.81,0,3.18-.4,4.13-1.19.94-.79,1.41-1.9,1.41-3.34s-.47-2.57-1.41-3.37c-.94-.79-2.31-1.19-4.13-1.19h-5.67l.85-.9v10.89ZM290.2,186.06l-4.66-6.57h2.07l4.69,6.57h-2.1Z"/>
    <path class="cls-2" d="M299.79,186.06v-16.46h-6.37v-1.66h14.65v1.66h-6.37v16.46h-1.91Z"/>
    <path class="cls-2" d="M316.51,179.85v-1.61h6.78v1.61h-6.78Z"/>
    <path class="cls-2" d="M342.45,186.22c-1.36,0-2.62-.23-3.78-.69-1.16-.45-2.15-1.1-3-1.93s-1.5-1.8-1.98-2.93c-.48-1.12-.71-2.34-.71-3.68s.23-2.55.71-3.67c.47-1.12,1.14-2.1,1.99-2.93s1.86-1.47,3.01-1.93c1.16-.46,2.41-.69,3.78-.69s2.55.22,3.7.66c1.16.44,2.13,1.1,2.93,1.98l-1.22,1.22c-.74-.76-1.56-1.31-2.46-1.65-.9-.33-1.86-.5-2.9-.5s-2.09.18-3.03.56c-.93.37-1.74.9-2.43,1.57-.69.68-1.23,1.48-1.62,2.38-.39.91-.58,1.9-.58,2.99s.2,2.09.58,2.99c.39.91.93,1.7,1.62,2.38s1.5,1.21,2.43,1.58c.94.37,1.94.56,3.03.56s2-.17,2.9-.52c.9-.34,1.72-.9,2.46-1.66l1.22,1.22c-.8.88-1.77,1.54-2.93,1.99s-2.4.68-3.73.68Z"/>
    <path class="cls-2" d="M356.87,186.06v-6.73l.44,1.19-7.69-12.57h2.05l6.75,11.05h-1.09l6.75-11.05h1.91l-7.69,12.57.44-1.19v6.73h-1.89Z"/>
    <path class="cls-2" d="M368.59,186.06v-18.12h7.82c2.02,0,3.58.4,4.69,1.21,1.11.82,1.67,1.96,1.67,3.44,0,.99-.23,1.81-.69,2.48-.45.68-1.08,1.18-1.86,1.53s-1.64.52-2.57.52l.44-.62c1.16,0,2.15.18,2.99.53.84.35,1.49.88,1.96,1.57.46.7.7,1.57.7,2.6,0,1.54-.56,2.73-1.69,3.57-1.13.85-2.84,1.27-5.11,1.27h-8.33ZM370.51,184.48h6.39c1.59,0,2.8-.27,3.65-.82s1.27-1.41,1.27-2.6-.42-2.03-1.27-2.57-2.06-.82-3.65-.82h-6.6v-1.58h5.98c1.45,0,2.58-.28,3.38-.83.8-.55,1.2-1.37,1.2-2.46s-.4-1.93-1.2-2.47-1.93-.82-3.38-.82h-5.77v14.96Z"/>
    <path class="cls-2" d="M388.11,186.06v-18.12h12.42v1.66h-10.51v14.81h10.89v1.66h-12.81ZM389.81,177.67v-1.63h9.58v1.63h-9.58Z"/>
    <path class="cls-2" d="M405.42,186.06v-18.12h6.78c2.29,0,4.1.55,5.42,1.64,1.32,1.09,1.98,2.62,1.98,4.57,0,1.28-.3,2.38-.9,3.3s-1.44,1.63-2.55,2.12-2.43.74-3.96.74h-5.72l.85-.88v6.63h-1.91ZM407.34,179.59l-.85-.9h5.67c1.81,0,3.18-.4,4.13-1.19.94-.79,1.41-1.9,1.41-3.34s-.47-2.57-1.41-3.37c-.94-.79-2.31-1.19-4.13-1.19h-5.67l.85-.9v10.89ZM417.79,186.06l-4.66-6.57h2.07l4.69,6.57h-2.1Z"/>
    <path class="cls-2" d="M432,186.22c-1.36,0-2.62-.23-3.78-.69-1.16-.45-2.15-1.1-3-1.93s-1.5-1.8-1.98-2.93c-.48-1.12-.71-2.34-.71-3.68s.23-2.55.71-3.67c.47-1.12,1.14-2.1,1.99-2.93s1.86-1.47,3.01-1.93c1.16-.46,2.41-.69,3.78-.69s2.55.22,3.7.66c1.16.44,2.13,1.1,2.93,1.98l-1.22,1.22c-.74-.76-1.56-1.31-2.46-1.65-.9-.33-1.86-.5-2.9-.5s-2.09.18-3.03.56c-.93.37-1.74.9-2.43,1.57-.69.68-1.23,1.48-1.62,2.38-.39.91-.58,1.9-.58,2.99s.2,2.09.58,2.99c.39.91.93,1.7,1.62,2.38s1.5,1.21,2.43,1.58c.94.37,1.94.56,3.03.56s2-.17,2.9-.52c.9-.34,1.72-.9,2.46-1.66l1.22,1.22c-.8.88-1.77,1.54-2.93,1.99s-2.4.68-3.73.68Z"/>
    <path class="cls-2" d="M439.11,186.06l8.28-18.12h1.89l8.28,18.12h-2.02l-7.61-17h.78l-7.61,17h-2ZM442.37,181.22l.57-1.55h10.53l.58,1.55h-11.68Z"/>
    <path class="cls-2" d="M460.57,186.06v-18.12h12.42v1.66h-10.51v16.46h-1.91ZM462.28,178.37v-1.66h9.58v1.66h-9.58Z"/>
    <path class="cls-2" d="M476.96,186.06v-18.12h12.42v1.66h-10.51v14.81h10.89v1.66h-12.81ZM478.66,177.67v-1.63h9.58v1.63h-9.58ZM481.49,166.46l3.54-3.21h2.46l-4.2,3.21h-1.81Z"/>
    <path class="cls-2" d="M499.66,179.85v-1.61h6.78v1.61h-6.78Z"/>
    <path class="cls-2" d="M517.72,186.06v-18.12h1.91v18.12h-1.91ZM519.38,181.55l-.08-2.33,10.98-11.29h2.2l-8,8.39-1.09,1.16-4.01,4.06ZM530.74,186.06l-7.82-9,1.3-1.4,8.8,10.41h-2.28Z"/>
    <path class="cls-2" d="M536.12,186.06v-18.12h6.78c1.54,0,2.86.25,3.96.74,1.11.49,1.95,1.19,2.55,2.12.59.93.9,2.04.9,3.36s-.3,2.38-.9,3.3-1.44,1.64-2.55,2.14c-1.11.5-2.43.75-3.96.75h-5.72l.85-.91v6.63h-1.91ZM538.04,179.59l-.85-.93h5.67c1.81,0,3.18-.4,4.13-1.18s1.41-1.89,1.41-3.32-.47-2.57-1.41-3.37c-.94-.79-2.31-1.19-4.13-1.19h-5.67l.85-.9v10.89Z"/>
    <path class="cls-2" d="M562.62,186.22c-1.36,0-2.62-.23-3.79-.69-1.16-.45-2.17-1.11-3.03-1.94-.85-.84-1.52-1.81-1.99-2.93-.48-1.11-.71-2.33-.71-3.66s.23-2.55.71-3.66c.47-1.11,1.14-2.09,1.99-2.93s1.86-1.48,3.01-1.94c1.16-.46,2.43-.69,3.8-.69s2.62.23,3.78.69c1.16.45,2.16,1.1,3.02,1.93.85.83,1.52,1.8,1.99,2.93.47,1.12.71,2.34.71,3.67s-.24,2.56-.71,3.68c-.47,1.12-1.14,2.1-1.99,2.93-.86.83-1.86,1.47-3.02,1.93-1.16.45-2.41.69-3.78.69ZM562.62,184.5c1.09,0,2.09-.18,3.02-.56.92-.37,1.73-.9,2.4-1.58.68-.68,1.21-1.47,1.59-2.38.38-.9.57-1.9.57-2.99s-.19-2.08-.57-2.99c-.38-.9-.91-1.7-1.59-2.38s-1.48-1.21-2.4-1.57c-.93-.37-1.93-.56-3.02-.56s-2.09.18-3.03.56c-.93.37-1.74.9-2.43,1.57-.69.68-1.23,1.48-1.61,2.38-.38.91-.57,1.9-.57,2.99s.19,2.07.57,2.98c.38.92.92,1.71,1.61,2.39s1.5,1.21,2.43,1.58c.94.37,1.94.56,3.03.56Z"/>
    <path class="cls-2" d="M576.42,186.06v-18.12h6.78c1.54,0,2.86.25,3.96.74,1.11.49,1.95,1.19,2.55,2.12.59.93.9,2.04.9,3.36s-.3,2.38-.9,3.3-1.44,1.64-2.55,2.14c-1.11.5-2.43.75-3.96.75h-5.72l.85-.91v6.63h-1.91ZM578.34,179.59l-.85-.93h5.67c1.81,0,3.18-.4,4.13-1.18s1.41-1.89,1.41-3.32-.47-2.57-1.41-3.37c-.94-.79-2.31-1.19-4.13-1.19h-5.67l.85-.9v10.89Z"/>
  </g>
  <path class="cls-1" d="M344.93,132.15c-2.24-3.03-4.7-6.32-7.4-9.87-2.7-3.56-5.55-7.25-8.58-11.06-1.32-1.67-2.59-3.4-3.89-5.09,5.84-3.38,10.69-7.62,14.45-12.85,4.54-6.31,6.81-13.48,6.81-21.51,0-12.89-4.61-23.18-13.81-30.88-9.21-7.7-22.89-11.55-41.05-11.55-6.71,0-13.03.37-18.94,1.09-5.94.73-11.13,1.88-15.6,3.46-2.51.92-4.55,2.14-6.12,3.65-1.58,1.52-2.36,3.66-2.36,6.42v93.53c0,6.05,1.37,10.3,4.14,12.73,2.76,2.43,7.55,3.65,14.4,3.65,3.16,0,6.26-.19,9.28-.59,3.02-.4,5.25-.78,6.72-1.18v-38.48h10.48l16.74,27.03c2.49,4.09,5.23,7.37,8.2,9.87,2.95,2.49,7.26,3.75,12.92,3.75,4.34,0,8.25-1.26,11.74-3.75,3.48-2.49,5.88-5.99,7.19-10.46-1.31-2.24-3.1-4.87-5.33-7.89ZM316.26,77.32c-2.74,11.93-22.76,15.16-32.28,10.53-4.68-2.28-11.4-11.37-11.8-16.57-.94-11.99,9.33-23.86,21.21-24.89,5.46-.47,10.16.59,14.41,4.11,9.34,7.73,11.19,14.94,8.47,26.83Z"/>
  <path class="cls-1" d="M731.09,123.17c-2.63-9.28-5.36-18.82-8.18-28.62-2.84-9.8-5.6-19.21-8.3-28.22-2.7-9.01-5.23-16.87-7.59-23.58-1.31-4.21-4.54-7.27-9.67-9.17-5.13-1.91-10.98-2.87-17.56-2.87-4.47,0-9.01.6-13.61,1.78-4.61,1.18-8.03,2.43-10.27,3.75-1.05,2.76-2.63,7.07-4.74,12.92-2.11,5.85-4.43,12.46-7,19.83-2.57,7.37-5.13,14.9-7.7,22.6s-4.91,14.86-7,21.5c-2.11,6.64-3.69,12.08-4.74,16.28-.66,2.51-1.25,4.68-1.77,6.51-.53,1.85-.8,3.69-.8,5.52,0,4.09,1.64,7.27,4.93,9.57s8.22,3.46,14.8,3.46c2.89,0,5.4-.26,7.5-.78,2.11-.53,4.01-1.05,5.72-1.58.53-1.98,1.05-4.01,1.58-6.12.53-2.11,1.09-4.28,1.68-6.51.59-2.24,1.18-4.6,1.77-7.1.38-1.61.87-3.28,1.33-4.93h35.69l3.55,13.62c1.18,4.47,3.02,7.79,5.52,9.96,2.49,2.17,6.96,3.26,13.41,3.26,4.34,0,8.09-.59,11.25-1.77,3.15-1.2,5.52-2.63,7.1-4.34-1.98-7.37-4.28-15.69-6.91-24.96ZM698.19,91.51c-2.34,10.23-19.51,13-27.67,9.03-4.01-1.95-9.77-9.74-10.12-14.2-.8-10.27,8-20.45,18.18-21.33,4.68-.41,8.71.51,12.35,3.52,8.01,6.63,9.59,12.8,7.26,23Z"/>
  <path class="cls-1" d="M464.54,57.32c-5.53-9.41-13.03-16.55-22.51-21.43-9.48-4.87-20.08-7.31-31.8-7.31s-22.28,2.44-31.7,7.31c-9.41,4.88-16.88,12.02-22.41,21.43-5.53,9.42-8.29,20.97-8.29,34.67s2.68,25.28,8.09,34.76c5.4,9.48,12.81,16.66,22.22,21.53,9.41,4.87,20.11,7.31,32.09,7.31s22.68-2.44,32.1-7.31c9.41-4.86,16.85-12.05,22.32-21.53,5.47-9.48,8.19-21.07,8.19-34.76s-2.76-25.25-8.3-34.67ZM376.64,67.59c2.45-.23,6.47.68,9.13.81,10.95.57,23.11.57,33.69-2.35,3.05-.85,7.73-3.17,10.47-3.5,4.25-.52,13.36,3.52,14.02,8.42,1.26,9.44-8.84,6.01-14.35,5.74-8.7-.41-17.31.45-25.74,2.51-3.99.98-9.33,3.46-13.24,3.14-4.97-.4-14.62-5.16-16.73-9.88-1.21-2.69-.32-4.61,2.75-4.9ZM445.86,122.03c-3.14.83-11-.89-14.66-1.21-10.19-.89-20.48-.77-30.56.88-5.59.92-13.45,3.99-18.7,2.69-4.42-1.1-12.9-5.95-14.81-10.19-1.87-4.15,1.48-4.22,4.67-4.13,4,.12,8.08.92,12.09,1.08,2.82.11,5.66-.1,8.48-.01-1.41-8.58-4.59-16.74-6.7-25.16,1.28-6.33,8.65-2.19,11.9.2,1.52,1.13,4.82,3.91,5.41,5.61,1.35,3.9-1.2,9.6-1.94,13.64-.13.74-.81,5.5-.61,5.7l22.57-1.35c-.09-2.99.13-6.02.01-9.01-.14-3.62-.53-7.89-1.16-11.47-.43-2.46-2.51-7.72-.88-9.63,3.16-3.68,11.4,2.13,14,4.58,1.94,1.82,2.95,3.08,2.43,5.93-.64,3.47-3.37,8.47-4.57,12.09-.79,2.38-1.38,4.83-2.03,7.25.47.35,7.99-1.96,9.53-1.89,2.87.12,8.84,2.79,9.96,5.66,1.06,2.72-1.59,8-4.42,8.74Z"/>
</svg>