<?xml version="1.0" encoding="UTF-8"?>
<svg id="Calque_1" data-name="Calque 1" xmlns="http://www.w3.org/2000/svg" viewBox="0 0 2913 707.69">
  <defs>
    <style>
      .cls-1 {
        fill: #fff;
      }

      .cls-2 {
        fill: #7f8f9d;
      }
    </style>
  </defs>
  <g>
    <path class="cls-1" d="M374.49,668.84v-99.19h68.02v9.06h-57.54v81.06h59.65v9.06h-70.13ZM383.83,622.93v-8.93h52.45v8.93h-52.45Z"/>
    <path class="cls-1" d="M458.81,634.83v-8.79h37.12v8.79h-37.12Z"/>
    <path class="cls-1" d="M545.38,669.7c-7.37,0-14.43-1.21-21.17-3.63-6.75-2.42-11.97-5.5-15.64-9.27l4.08-8.1c3.49,3.43,8.2,6.26,14.12,8.58,5.88,2.32,12.11,3.49,18.61,3.49s11.31-.8,15.26-2.35c3.91-1.56,6.78-3.67,8.65-6.3,1.83-2.66,2.77-5.57,2.77-8.79,0-3.88-1.14-6.99-3.36-9.38-2.21-2.35-5.12-4.22-8.72-5.57-3.56-1.38-7.54-2.59-11.9-3.63-4.32-1.04-8.68-2.15-13.04-3.32-4.32-1.18-8.34-2.77-11.97-4.74-3.63-2.01-6.54-4.6-8.79-7.89-2.21-3.25-3.32-7.51-3.32-12.8,0-4.91,1.31-9.45,3.91-13.56,2.59-4.08,6.57-7.4,11.97-9.9,5.4-2.53,12.28-3.77,20.69-3.77,5.57,0,11.11.8,16.57,2.35,5.47,1.56,10.21,3.7,14.19,6.44l-3.56,8.37c-4.26-2.84-8.75-4.91-13.53-6.23-4.77-1.35-9.38-2.01-13.8-2.01-5.95,0-10.86.83-14.74,2.42-3.88,1.59-6.75,3.74-8.58,6.44s-2.77,5.74-2.77,9.13c0,3.88,1.11,7.02,3.32,9.38,2.25,2.35,5.16,4.19,8.79,5.54,3.63,1.31,7.65,2.49,11.97,3.53,4.36,1.04,8.68,2.18,12.97,3.39,4.29,1.25,8.27,2.84,11.9,4.74,3.63,1.94,6.57,4.53,8.79,7.75,2.21,3.22,3.36,7.4,3.36,12.59,0,4.84-1.35,9.31-3.98,13.39-2.66,4.12-6.68,7.44-12.11,9.93-5.43,2.49-12.42,3.77-20.93,3.77Z"/>
    <path class="cls-1" d="M605.2,668.84v-99.19h37.12c8.41,0,15.64,1.35,21.69,4.05,6.05,2.66,10.69,6.54,13.94,11.59,3.25,5.09,4.91,11.18,4.91,18.37s-1.66,13.01-4.91,18.06c-3.25,5.05-7.89,8.96-13.94,11.69-6.05,2.73-13.29,4.12-21.69,4.12h-31.31l4.67-4.98v36.29h-10.48ZM615.68,633.41l-4.67-5.09h31.04c9.93,0,17.44-2.18,22.59-6.47,5.16-4.29,7.72-10.35,7.72-18.2s-2.56-14.08-7.72-18.44c-5.16-4.32-12.66-6.5-22.59-6.5h-31.04l4.67-4.95v59.65Z"/>
    <path class="cls-1" d="M750.3,669.7c-7.44,0-14.36-1.28-20.76-3.77-6.37-2.49-11.9-6.05-16.57-10.62-4.67-4.6-8.3-9.93-10.9-16.02-2.63-6.09-3.91-12.77-3.91-20.07s1.28-13.94,3.91-20.03c2.59-6.09,6.23-11.45,10.9-16.02,4.67-4.57,10.17-8.13,16.5-10.62,6.33-2.53,13.29-3.77,20.83-3.77s14.36,1.25,20.69,3.77c6.33,2.49,11.83,6.02,16.54,10.55,4.67,4.53,8.3,9.86,10.9,16.02,2.59,6.12,3.91,12.84,3.91,20.1s-1.31,14.01-3.91,20.14c-2.59,6.16-6.23,11.49-10.9,16.02-4.71,4.53-10.21,8.06-16.54,10.55-6.33,2.49-13.22,3.77-20.69,3.77ZM750.3,660.33c5.95,0,11.45-1,16.54-3.04,5.05-2.04,9.45-4.91,13.15-8.65,3.74-3.74,6.64-8.06,8.72-13.04,2.08-4.95,3.11-10.41,3.11-16.37s-1.04-11.38-3.11-16.37c-2.08-4.95-4.98-9.31-8.72-13.04s-8.1-6.61-13.15-8.62c-5.09-2.04-10.59-3.04-16.54-3.04s-11.45,1-16.57,3.04c-5.09,2.01-9.55,4.91-13.32,8.62-3.77,3.74-6.71,8.1-8.79,13.04-2.08,4.98-3.11,10.41-3.11,16.37s1.04,11.31,3.11,16.3c2.08,5.02,5.02,9.38,8.79,13.11,3.77,3.74,8.23,6.61,13.32,8.65,5.12,2.04,10.62,3.04,16.57,3.04Z"/>
    <path class="cls-1" d="M825.87,668.84v-99.19h37.12c12.56,0,22.45,3.01,29.69,9,7.23,5.99,10.86,14.32,10.86,25.01,0,6.99-1.66,13.01-4.91,18.06-3.25,5.05-7.89,8.93-13.94,11.63-6.05,2.7-13.29,4.05-21.69,4.05h-31.31l4.67-4.84v36.29h-10.48ZM836.35,633.41l-4.67-4.95h31.04c9.93,0,17.44-2.18,22.59-6.54,5.16-4.32,7.72-10.41,7.72-18.27s-2.56-14.08-7.72-18.44c-5.16-4.32-12.66-6.5-22.59-6.5h-31.04l4.67-4.95v59.65ZM893.61,668.84l-25.5-35.98h11.31l25.67,35.98h-11.49Z"/>
    <path class="cls-1" d="M946.17,668.84v-90.13h-34.88v-9.06h80.23v9.06h-34.88v90.13h-10.48Z"/>
    <path class="cls-1" d="M1037.72,634.83v-8.79h37.12v8.79h-37.12Z"/>
    <path class="cls-1" d="M1179.71,669.7c-7.47,0-14.36-1.28-20.69-3.77-6.33-2.49-11.8-6.02-16.43-10.55-4.64-4.53-8.23-9.86-10.83-16.02-2.63-6.12-3.91-12.84-3.91-20.14s1.28-13.98,3.91-20.1c2.59-6.16,6.23-11.49,10.9-16.02,4.67-4.53,10.17-8.06,16.5-10.55,6.33-2.53,13.22-3.77,20.69-3.77s13.94,1.21,20.27,3.63c6.33,2.39,11.66,6.02,16.02,10.83l-6.68,6.68c-4.05-4.19-8.55-7.16-13.46-9.03-4.91-1.83-10.21-2.73-15.88-2.73s-11.45,1-16.57,3.04c-5.09,2.01-9.55,4.91-13.32,8.62-3.77,3.74-6.71,8.1-8.86,13.04-2.11,4.98-3.18,10.41-3.18,16.37s1.07,11.42,3.18,16.37c2.15,4.98,5.09,9.31,8.86,13.04,3.77,3.74,8.23,6.61,13.32,8.65,5.12,2.04,10.62,3.04,16.57,3.04s10.97-.93,15.88-2.84c4.91-1.87,9.41-4.91,13.46-9.06l6.68,6.68c-4.36,4.81-9.69,8.44-16.02,10.9-6.33,2.46-13.15,3.7-20.41,3.7Z"/>
    <path class="cls-1" d="M1258.66,668.84v-36.85l2.42,6.5-42.11-68.85h11.21l36.99,60.51h-5.95l36.99-60.51h10.48l-42.11,68.85,2.42-6.5v36.85h-10.35Z"/>
    <path class="cls-1" d="M1322.88,668.84v-99.19h42.8c11.04,0,19.62,2.21,25.71,6.64,6.09,4.46,9.17,10.73,9.17,18.86,0,5.4-1.28,9.93-3.77,13.6-2.49,3.7-5.92,6.47-10.21,8.37-4.29,1.9-9,2.84-14.08,2.84l2.39-3.39c6.33,0,11.8.97,16.37,2.91,4.6,1.94,8.17,4.81,10.73,8.62,2.53,3.84,3.81,8.58,3.81,14.25,0,8.41-3.08,14.95-9.27,19.55-6.19,4.64-15.53,6.95-27.99,6.95h-45.64ZM1333.36,660.19h35.01c8.68,0,15.33-1.49,19.96-4.46,4.64-2.98,6.95-7.72,6.95-14.25s-2.32-11.11-6.95-14.08c-4.64-2.98-11.28-4.46-19.96-4.46h-36.16v-8.65h32.73c7.96,0,14.12-1.52,18.51-4.53,4.39-3.01,6.57-7.51,6.57-13.46s-2.18-10.55-6.57-13.53c-4.39-2.98-10.55-4.46-18.51-4.46h-31.59v81.9Z"/>
    <path class="cls-1" d="M1429.72,668.84v-99.19h68.02v9.06h-57.54v81.06h59.65v9.06h-70.13ZM1439.06,622.93v-8.93h52.45v8.93h-52.45Z"/>
    <path class="cls-1" d="M1524.52,668.84v-99.19h37.12c12.56,0,22.45,3.01,29.69,9,7.23,5.99,10.86,14.32,10.86,25.01,0,6.99-1.66,13.01-4.91,18.06-3.25,5.05-7.89,8.93-13.94,11.63-6.05,2.7-13.29,4.05-21.69,4.05h-31.31l4.67-4.84v36.29h-10.48ZM1535,633.41l-4.67-4.95h31.04c9.93,0,17.44-2.18,22.59-6.54,5.16-4.32,7.72-10.41,7.72-18.27s-2.56-14.08-7.72-18.44c-5.16-4.32-12.66-6.5-22.59-6.5h-31.04l4.67-4.95v59.65ZM1592.27,668.84l-25.5-35.98h11.31l25.67,35.98h-11.49Z"/>
    <path class="cls-1" d="M1670.04,669.7c-7.47,0-14.36-1.28-20.69-3.77-6.33-2.49-11.8-6.02-16.43-10.55-4.64-4.53-8.23-9.86-10.83-16.02-2.63-6.12-3.91-12.84-3.91-20.14s1.28-13.98,3.91-20.1c2.59-6.16,6.23-11.49,10.9-16.02,4.67-4.53,10.17-8.06,16.5-10.55,6.33-2.53,13.22-3.77,20.69-3.77s13.94,1.21,20.27,3.63c6.33,2.39,11.66,6.02,16.02,10.83l-6.68,6.68c-4.05-4.19-8.55-7.16-13.46-9.03-4.91-1.83-10.21-2.73-15.88-2.73s-11.45,1-16.57,3.04c-5.09,2.01-9.55,4.91-13.32,8.62-3.77,3.74-6.71,8.1-8.86,13.04-2.11,4.98-3.18,10.41-3.18,16.37s1.07,11.42,3.18,16.37c2.15,4.98,5.09,9.31,8.86,13.04,3.77,3.74,8.23,6.61,13.32,8.65,5.12,2.04,10.62,3.04,16.57,3.04s10.97-.93,15.88-2.84c4.91-1.87,9.41-4.91,13.46-9.06l6.68,6.68c-4.36,4.81-9.69,8.44-16.02,10.9-6.33,2.46-13.15,3.7-20.41,3.7Z"/>
    <path class="cls-1" d="M1709,668.84l45.36-99.19h10.35l45.36,99.19h-11.07l-41.66-93.11h4.26l-41.66,93.11h-10.93ZM1726.85,642.34l3.11-8.51h57.68l3.15,8.51h-63.94Z"/>
    <path class="cls-1" d="M1826.5,668.84v-99.19h68.02v9.06h-57.54v90.13h-10.48ZM1835.84,626.73v-9.06h52.45v9.06h-52.45Z"/>
    <path class="cls-1" d="M1916.21,668.84v-99.19h68.02v9.06h-57.54v81.06h59.65v9.06h-70.13ZM1925.56,622.93v-8.93h52.45v8.93h-52.45ZM1941.02,561.55l19.41-17.58h13.46l-22.97,17.58h-9.9Z"/>
    <path class="cls-1" d="M2040.49,634.83v-8.79h37.12v8.79h-37.12Z"/>
    <path class="cls-1" d="M2139.41,668.84v-99.19h10.48v99.19h-10.48ZM2148.48,644.17l-.42-12.73,60.1-61.79h12.04l-43.8,45.91-5.95,6.37-21.97,22.25ZM2210.68,668.84l-42.8-49.3,7.09-7.68,48.2,56.98h-12.49Z"/>
    <path class="cls-1" d="M2240.16,668.84v-99.19h37.12c8.41,0,15.64,1.35,21.69,4.05,6.05,2.66,10.69,6.54,13.94,11.59,3.25,5.09,4.91,11.18,4.91,18.37s-1.66,13.01-4.91,18.06c-3.25,5.05-7.89,8.96-13.94,11.69-6.05,2.73-13.29,4.12-21.69,4.12h-31.31l4.67-4.98v36.29h-10.48ZM2250.65,633.41l-4.67-5.09h31.04c9.93,0,17.44-2.18,22.59-6.47,5.16-4.29,7.72-10.35,7.72-18.2s-2.56-14.08-7.72-18.44c-5.16-4.32-12.66-6.5-22.59-6.5h-31.04l4.67-4.95v59.65Z"/>
    <path class="cls-1" d="M2385.27,669.7c-7.44,0-14.36-1.28-20.76-3.77-6.37-2.49-11.9-6.05-16.57-10.62-4.67-4.6-8.3-9.93-10.9-16.02-2.63-6.09-3.91-12.77-3.91-20.07s1.28-13.94,3.91-20.03c2.59-6.09,6.23-11.45,10.9-16.02,4.67-4.57,10.17-8.13,16.5-10.62,6.33-2.53,13.29-3.77,20.83-3.77s14.36,1.25,20.69,3.77c6.33,2.49,11.83,6.02,16.54,10.55,4.67,4.53,8.3,9.86,10.9,16.02,2.59,6.12,3.91,12.84,3.91,20.1s-1.31,14.01-3.91,20.14c-2.59,6.16-6.23,11.49-10.9,16.02-4.71,4.53-10.21,8.06-16.54,10.55-6.33,2.49-13.22,3.77-20.69,3.77ZM2385.27,660.33c5.95,0,11.45-1,16.54-3.04,5.05-2.04,9.45-4.91,13.15-8.65,3.74-3.74,6.64-8.06,8.72-13.04,2.08-4.95,3.11-10.41,3.11-16.37s-1.04-11.38-3.11-16.37c-2.08-4.95-4.98-9.31-8.72-13.04-3.7-3.7-8.1-6.61-13.15-8.62-5.09-2.04-10.59-3.04-16.54-3.04s-11.45,1-16.57,3.04c-5.09,2.01-9.55,4.91-13.32,8.62-3.77,3.74-6.71,8.1-8.79,13.04-2.08,4.98-3.11,10.41-3.11,16.37s1.04,11.31,3.11,16.3c2.08,5.02,5.02,9.38,8.79,13.11,3.77,3.74,8.23,6.61,13.32,8.65,5.12,2.04,10.62,3.04,16.57,3.04Z"/>
    <path class="cls-1" d="M2460.83,668.84v-99.19h37.12c8.41,0,15.64,1.35,21.69,4.05,6.05,2.66,10.69,6.54,13.94,11.59,3.25,5.09,4.91,11.18,4.91,18.37s-1.66,13.01-4.91,18.06c-3.25,5.05-7.89,8.96-13.94,11.69-6.05,2.73-13.29,4.12-21.69,4.12h-31.31l4.67-4.98v36.29h-10.48ZM2471.32,633.41l-4.67-5.09h31.04c9.93,0,17.44-2.18,22.59-6.47,5.16-4.29,7.72-10.35,7.72-18.2s-2.56-14.08-7.72-18.44c-5.16-4.32-12.66-6.5-22.59-6.5h-31.04l4.67-4.95v59.65Z"/>
  </g>
  <g>
    <path class="cls-2" d="M435.72,122.79c0,13.21-3.41,24.98-10.32,35.27-6.81,10.29-14.76,18.37-23.74,24.18-13.21-8.98-27.76-16.64-43.6-22.99-15.84-6.35-34.11-9.49-54.7-9.49-26.94,0-49.8,5.68-68.58,17.03-18.73,11.38-33.03,27.74-42.78,49.15-9.75,21.39-14.66,47.14-14.66,77.27,0,46.47,11.71,81.92,35.24,106.17,23.53,24.36,56.14,36.48,97.94,36.48,21.62,0,39.99-2.89,55.06-8.72,15.02-5.83,29.47-12.38,43.19-19.82,8.98,6.86,16,15.58,21,26.16,5.01,10.58,7.53,22.71,7.53,36.43,0,12.18-3.15,23.27-9.55,33.34-6.3,10.01-17.13,18.47-32.46,25.34-9.55,4.23-22.96,8.46-40.4,12.69-17.44,4.23-38.6,6.35-63.47,6.35-47.53,0-90.72-9.03-129.52-26.99-38.91-17.96-69.77-45.67-92.78-83.18-22.96-37.52-34.47-85.61-34.47-144.25,0-54.96,11.09-101.32,33.28-139.12,22.24-37.77,52.17-66.57,89.94-86.38,37.77-19.82,79.42-29.72,124.88-29.72,32.2,0,59.7,3.72,82.41,11.09,22.76,7.4,40.2,17.44,52.32,30.11,12.13,12.69,18.22,27.22,18.22,43.6Z"/>
    <path class="cls-2" d="M2169.59,415.28c-6.86,5.26-15.74,9.75-26.52,13.47-10.84,3.66-23.38,5.52-37.67,5.52-19.04,0-34.73-2.37-47.16-7.12-12.44-4.75-20.49-12.95-24.15-24.56-14.81-47.01-26.99-84.81-36.48-113.34-9.49-28.54-16.93-53.62-22.19-75.29h-3.97c-1.55,31.17-2.79,59.58-3.56,85.2-.77,25.62-1.34,50.44-1.6,74.49-.26,24.05-.77,48.61-1.55,73.74-.83,25.08-2.01,52.69-3.56,82.82-6.91,2.12-15.89,4.23-26.99,6.35-11.09,2.06-22.19,3.15-33.28,3.15-22.71,0-40.66-3.72-53.87-11.09-13.21-7.38-19.82-20.85-19.82-40.4,0-13.21.52-31.32,1.55-54.29,1.08-23.01,2.53-48.87,4.39-77.71,1.86-28.79,3.66-59.03,5.52-90.72,1.86-31.71,3.87-63.14,5.99-94.33,2.06-31.17,3.92-60.25,5.52-87.18,4.23-6.86,13.47-14.27,27.76-22.19,14.24-7.95,34.32-11.89,60.22-11.89,28.02,0,50.05,4.36,66.21,13.08,16.1,8.72,27.61,22.86,34.47,42.39,6.35,16.93,13.21,36.87,20.59,59.86,7.38,22.96,14.81,46.24,22.19,69.74,7.43,23.5,13.98,44.53,19.82,63.01h3.97c12.69-43.86,25.49-86.8,38.44-128.8,12.95-42,24.46-76.73,34.47-104.24,7.95-4.21,18.22-7.77,30.91-10.68,12.69-2.92,26.42-4.36,41.23-4.36,25.9,0,47.01,3.84,63.42,11.48,16.36,7.66,25.85,18.63,28.54,32.9,2.12,10.58,4.33,26.7,6.71,48.35,2.37,21.67,4.9,46.49,7.53,74.51,2.63,27.99,5.26,57.2,7.95,87.57,2.63,30.39,5.16,59.86,7.53,88.4,2.37,28.48,4.33,54.29,5.93,77.25,1.6,23.01,2.63,41.08,3.15,54.29-8.98,5.32-18.37,9.13-28.12,11.51-9.8,2.37-22.34,3.56-37.67,3.56-19.51,0-36.33-3.46-50.31-10.32-13.98-6.86-21.52-20.33-22.6-40.4-2.12-38.55-3.66-74.51-4.75-107.8-1.03-33.28-1.86-63.65-2.37-91.13-.52-27.48-1.34-51.53-2.37-72.14h-3.97c-5.26,20.62-12.95,46.52-22.96,77.69-10.06,31.19-22.19,71.08-36.48,119.69Z"/>
    <path class="cls-2" d="M870.32,58.6c-11.61-9.52-30.65-14.27-57.07-14.27-11.56,0-23.63.93-36.02,2.76-12.44,1.86-21.78,3.3-28.17,4.36-22.27,2.41-27.21,174.27-70.13,187.06h-11.74c-54.06-18.23-71.14-143.22-71.14-143.22v.46c-1.88-17.97-7.32-30.78-16.55-37.95-11.66-8.98-30.65-13.47-57.07-13.47-11.66,0-23.69.93-36.12,2.76-12.38,1.86-21.78,3.3-28.07,4.36v422.44c0,24.3,5.52,41.39,16.62,51.14,11.09,9.75,30.34,14.66,57.85,14.66,12.69,0,25.13-.77,37.26-2.37,12.13-1.6,21.11-3.15,26.99-4.75,29.54-9.39,21.69-173.83,67.28-184.68h10.42c48.69,11.18,70.05,111.71,75.4,141.88.16,1.26.43,2.37.63,3.59.54,3.2.83,5.18.83,5.18l-.03-1.55c2.56,12.23,7.15,21.81,14.25,28.06,11.1,9.75,30.39,14.66,57.85,14.66,12.69,0,25.08-.77,37.26-2.37,12.18-1.6,21.16-3.15,26.94-4.75V111.7c0-25.88-5.78-43.6-17.44-53.1Z"/>
    <path class="cls-2" d="M1299.57,452.53c-8.98-12.18-18.89-25.39-29.72-39.63-10.84-14.29-22.29-29.1-34.47-44.43-5.31-6.71-10.39-13.65-15.61-20.46,23.44-13.56,42.94-30.63,58.03-51.63,18.21-25.36,27.35-54.16,27.35-86.41,0-51.78-18.53-93.12-55.47-124.03-37-30.94-91.96-46.39-164.87-46.39-26.94,0-52.32,1.47-76.06,4.36-23.84,2.92-44.69,7.53-62.65,13.88-10.06,3.71-18.27,8.59-24.56,14.66-6.35,6.09-9.5,14.68-9.5,25.77v375.67c0,24.3,5.52,41.39,16.62,51.14,11.09,9.75,30.34,14.66,57.85,14.66,12.69,0,25.13-.77,37.26-2.37,12.13-1.6,21.1-3.15,26.99-4.75v-154.55h42.11l67.24,108.57c10.01,16.41,21,29.62,32.92,39.63,11.87,10.01,29.16,15.07,51.91,15.07,17.44,0,33.13-5.06,47.17-15.07,13.98-10.01,23.63-24.05,28.9-42.01-5.26-8.98-12.44-19.56-21.41-31.68ZM1184.43,232.3c-10.99,47.92-91.41,60.91-129.65,42.29-18.81-9.16-45.78-45.65-47.41-66.56-3.76-48.15,37.47-95.83,85.2-99.97,21.93-1.9,40.81,2.38,57.86,16.49,37.52,31.05,44.96,59.99,34,107.75Z"/>
    <path class="cls-2" d="M1780.14,153.32c-22.19-37.77-52.27-66.44-90.36-85.99-38.03-19.56-80.55-29.34-127.61-29.34s-89.43,9.78-127.2,29.34c-37.77,19.56-67.75,48.22-89.94,85.99-22.19,37.77-33.28,84.14-33.28,139.09s10.78,101.45,32.46,139.48c21.67,38.03,51.4,66.88,89.17,86.38,37.77,19.56,80.71,29.36,128.8,29.36s91.03-9.8,128.8-29.36c37.77-19.51,67.65-48.35,89.58-86.38,21.93-38.03,32.87-84.53,32.87-139.48s-11.1-101.32-33.28-139.09ZM1678.62,346.85c-14.34,62.56-119.32,79.51-169.25,55.21-24.56-11.95-59.76-59.59-61.89-86.89-4.91-62.85,48.91-125.1,111.22-130.5,28.62-2.48,53.28,3.11,75.53,21.52,48.98,40.53,58.68,78.31,44.39,140.66Z"/>
    <path class="cls-2" d="M2850.57,416.46c-10.58-37.26-21.52-75.6-32.87-114.95-11.41-39.35-22.5-77.15-33.34-113.34-10.84-36.17-21-67.75-30.5-94.72-5.26-16.9-18.21-29.18-38.86-36.84-20.59-7.66-44.12-11.51-70.54-11.51-17.96,0-36.17,2.4-54.65,7.15-18.52,4.75-32.25,9.78-41.23,15.07-4.23,11.09-10.58,28.41-19.04,51.91-8.46,23.5-17.8,50.06-28.12,79.65-10.32,29.59-20.59,59.86-30.91,90.77-10.32,30.91-19.71,59.68-28.12,86.36-8.46,26.68-14.81,48.51-19.04,65.38-2.63,10.06-5,18.78-7.12,26.16-2.12,7.43-3.2,14.81-3.2,22.19,0,16.41,6.61,29.21,19.82,38.44,13.21,9.24,33.03,13.88,59.45,13.88,11.61,0,21.67-1.03,30.14-3.15,8.46-2.12,16.1-4.23,22.96-6.35,2.12-7.95,4.23-16.1,6.35-24.56,2.12-8.46,4.39-17.18,6.76-26.16,2.37-8.98,4.75-18.47,7.12-28.54,1.52-6.45,3.48-13.17,5.33-19.82h143.34l14.24,54.7c4.75,17.96,12.13,31.27,22.19,39.99,10.01,8.72,27.97,13.11,53.87,13.11,17.44,0,32.51-2.37,45.2-7.12,12.64-4.8,22.19-10.58,28.54-17.44-7.95-29.62-17.18-63.01-27.76-100.26ZM2718.44,289.3c-9.42,41.07-78.35,52.2-111.13,36.25-16.13-7.85-39.24-39.13-40.64-57.05-3.22-41.27,32.11-82.14,73.03-85.69,18.8-1.63,34.98,2.04,49.59,14.13,32.16,26.61,38.53,51.42,29.14,92.36Z"/>
  </g>
</svg>