<?xml version="1.0" encoding="UTF-8"?>
<svg id="Calque_1" data-name="Calque 1" xmlns="http://www.w3.org/2000/svg" viewBox="0 0 768 768">
  <defs>
    <style>
      .cls-1 {
        fill: #7f8f9d;
      }
    </style>
  </defs>
  <path class="cls-1" d="M348.42,251.15c0,10.47-2.7,19.79-8.18,27.94-5.4,8.16-11.69,14.56-18.81,19.15-10.47-7.11-22-13.19-34.55-18.21-12.55-5.03-27.03-7.52-43.34-7.52-21.34,0-39.45,4.5-54.34,13.49-14.84,9.02-26.17,21.98-33.89,38.94-7.73,16.95-11.61,37.35-11.61,61.23,0,36.82,9.28,64.91,27.92,84.12,18.64,19.3,44.48,28.91,77.6,28.91,17.13,0,31.69-2.29,43.62-6.91,11.9-4.62,23.35-9.81,34.22-15.7,7.11,5.44,12.67,12.35,16.64,20.73,3.97,8.38,5.97,17.99,5.97,28.86,0,9.65-2.49,18.44-7.56,26.41-4.99,7.93-13.57,14.64-25.72,20.07-7.56,3.35-18.19,6.71-32.01,10.06-13.82,3.35-30.58,5.03-50.29,5.03-37.66,0-71.88-7.15-102.62-21.38-30.83-14.23-55.28-36.18-73.51-65.91-18.19-29.72-27.31-67.83-27.31-114.29,0-43.54,8.79-80.28,26.37-110.23,17.62-29.93,41.33-52.74,71.26-68.44,29.93-15.7,62.92-23.55,98.94-23.55,25.51,0,47.3,2.94,65.29,8.79,18.03,5.87,31.85,13.82,41.46,23.86,9.61,10.06,14.43,21.57,14.43,34.55Z"/>
  <path class="cls-1" d="M711.23,270.73c-17.41-29.64-41.01-52.13-70.89-67.47-29.84-15.34-63.2-23.02-100.12-23.02s-70.16,7.67-99.8,23.02c-29.64,15.34-53.16,37.83-70.57,67.47-17.41,29.64-26.11,66.01-26.11,109.13s8.46,79.6,25.47,109.43c17.01,29.84,40.32,52.47,69.96,67.77,29.64,15.34,63.32,23.04,101.05,23.04s71.42-7.69,101.05-23.04c29.64-15.3,53.08-37.94,70.28-67.77,17.21-29.84,25.79-66.32,25.79-109.43s-8.71-79.49-26.11-109.13ZM631.57,422.57c-11.25,49.08-93.62,62.38-132.78,43.32-19.27-9.38-46.89-46.75-48.56-68.17-3.85-49.31,38.37-98.15,87.26-102.39,22.46-1.95,41.8,2.44,59.26,16.89,38.42,31.8,46.04,61.44,34.83,110.36Z"/>
</svg>